<svg id="svg" version="1.1" xmlns="http://www.w3.org/2000/svg" xmlns:xlink="http://www.w3.org/1999/xlink" width="400" height="402.65486725663715" viewBox="0, 0, 400,402.65486725663715"><g id="svgg"><path id="path0" d="M190.486 22.064 C 190.363 22.114,190.308 22.227,190.363 22.316 C 190.423 22.412,189.024 22.478,186.940 22.478 C 182.405 22.478,180.655 22.616,180.788 22.963 C 180.872 23.181,180.447 23.209,177.921 23.158 L 174.956 23.097 174.999 23.503 C 175.038 23.868,174.984 23.900,174.468 23.820 C 171.869 23.417,170.706 23.508,170.895 24.101 C 171.005 24.448,170.958 24.454,169.044 24.330 C 167.094 24.203,167.080 24.205,167.080 24.596 C 167.080 24.983,167.055 24.987,165.398 24.863 C 163.748 24.739,163.717 24.744,163.717 25.124 C 163.717 25.501,163.678 25.508,162.274 25.385 C 160.849 25.261,160.832 25.264,160.932 25.647 C 161.031 26.026,160.999 26.034,159.591 25.982 C 158.250 25.933,158.148 25.954,158.145 26.283 C 158.143 26.478,158.062 26.625,157.965 26.610 C 155.923 26.294,155.398 26.328,155.398 26.775 C 155.398 27.198,155.366 27.212,154.735 27.065 C 153.438 26.764,153.043 26.841,153.176 27.368 C 153.269 27.740,153.238 27.812,153.020 27.728 C 152.870 27.670,152.337 27.569,151.835 27.502 L 150.922 27.381 151.011 27.849 L 151.101 28.316 150.156 28.205 C 149.362 28.111,149.192 28.142,149.094 28.398 C 148.995 28.657,148.826 28.684,147.940 28.581 C 146.845 28.454,146.790 28.485,147.094 29.053 C 147.277 29.396,147.248 29.405,146.316 29.288 C 145.498 29.186,145.321 29.216,145.174 29.477 C 145.036 29.725,144.850 29.767,144.248 29.686 C 143.236 29.551,142.960 29.666,143.205 30.124 C 143.382 30.454,143.355 30.469,142.803 30.342 C 141.721 30.094,141.500 30.137,141.549 30.589 C 141.590 30.968,141.547 30.991,141.018 30.874 C 140.030 30.654,139.910 30.681,139.927 31.121 C 139.941 31.493,139.886 31.522,139.361 31.424 C 138.890 31.336,138.743 31.384,138.585 31.680 C 138.435 31.959,138.241 32.035,137.760 32.003 C 137.318 31.973,137.059 32.057,136.893 32.285 C 136.703 32.543,136.524 32.584,136.005 32.487 C 135.380 32.370,135.358 32.382,135.463 32.800 C 135.570 33.229,135.560 33.233,134.870 33.058 C 133.957 32.826,133.547 32.969,133.795 33.431 C 133.962 33.745,133.923 33.764,133.289 33.679 C 132.721 33.602,132.567 33.650,132.407 33.950 C 132.249 34.244,132.096 34.295,131.608 34.216 C 131.075 34.129,130.997 34.167,130.944 34.532 C 130.863 35.097,130.161 35.427,129.324 35.294 C 128.737 35.200,128.636 35.235,128.550 35.563 C 128.469 35.872,128.338 35.930,127.810 35.890 C 127.269 35.848,127.160 35.901,127.114 36.222 C 127.046 36.700,126.196 37.071,125.492 36.930 C 125.087 36.849,124.909 36.909,124.710 37.193 C 124.569 37.395,124.374 37.512,124.278 37.452 C 124.015 37.290,123.540 37.525,123.540 37.818 C 123.540 37.964,123.406 38.054,123.230 38.026 C 122.861 37.967,121.687 38.478,118.938 39.893 C 117.819 40.470,116.678 41.057,116.403 41.198 C 116.128 41.339,115.861 41.566,115.809 41.701 C 115.757 41.836,115.533 41.947,115.312 41.947 C 115.061 41.947,114.734 42.176,114.445 42.555 C 114.033 43.096,113.913 43.152,113.362 43.063 C 112.819 42.975,112.743 43.008,112.743 43.335 C 112.743 43.780,112.040 44.186,110.974 44.357 C 110.435 44.443,110.040 44.667,109.547 45.164 C 109.173 45.542,108.564 45.978,108.194 46.131 C 107.825 46.285,107.056 46.761,106.487 47.188 C 105.812 47.694,105.271 47.965,104.932 47.965 C 104.526 47.965,104.333 48.100,104.047 48.584 C 103.771 49.053,103.564 49.204,103.196 49.204 C 102.928 49.204,102.570 49.357,102.400 49.546 C 102.230 49.734,101.996 49.851,101.880 49.807 C 101.765 49.763,101.401 50.004,101.073 50.343 C 100.744 50.682,100.400 50.913,100.309 50.857 C 100.217 50.800,99.732 51.157,99.231 51.649 C 98.729 52.141,98.080 52.602,97.788 52.673 C 97.496 52.744,96.580 53.305,95.752 53.918 C 94.925 54.532,93.786 55.374,93.222 55.791 C 92.658 56.208,92.058 56.668,91.889 56.814 C 90.701 57.844,89.750 58.584,89.617 58.584 C 89.530 58.584,88.906 59.142,88.230 59.823 C 87.554 60.504,86.887 61.062,86.748 61.062 C 86.609 61.062,85.647 61.898,84.610 62.920 C 83.573 63.942,82.644 64.779,82.547 64.779 C 82.450 64.779,82.100 65.058,81.770 65.398 C 81.440 65.739,81.084 66.018,80.980 66.018 C 80.876 66.018,79.877 66.934,78.761 68.053 C 77.645 69.173,76.647 70.088,76.543 70.088 C 76.294 70.088,71.858 74.575,71.858 74.826 C 71.858 74.933,70.625 76.280,69.117 77.820 C 67.433 79.539,66.374 80.756,66.374 80.973 C 66.373 81.183,65.829 81.845,65.045 82.593 C 64.314 83.289,63.717 83.960,63.717 84.083 C 63.717 84.207,63.193 84.850,62.554 85.513 C 61.914 86.176,61.435 86.791,61.490 86.879 C 61.545 86.968,61.073 87.543,60.441 88.156 C 59.456 89.112,58.875 90.013,59.487 89.635 C 60.027 89.301,59.069 90.515,57.585 92.044 C 55.948 93.731,55.508 94.397,56.318 93.964 C 56.844 93.682,55.903 94.868,54.286 96.524 C 53.624 97.202,53.119 97.854,53.164 97.972 C 53.210 98.091,52.973 98.453,52.639 98.777 C 52.304 99.101,52.062 99.449,52.100 99.550 C 52.138 99.652,51.881 100.036,51.528 100.405 C 51.062 100.894,50.948 101.114,51.112 101.215 C 51.280 101.319,51.240 101.438,50.952 101.694 C 50.741 101.882,50.412 102.394,50.220 102.832 C 50.029 103.270,49.463 104.049,48.963 104.564 C 48.309 105.236,48.117 105.539,48.279 105.639 C 48.451 105.746,48.424 105.851,48.162 106.088 C 47.974 106.258,47.644 106.809,47.428 107.314 C 47.212 107.818,46.761 108.536,46.425 108.909 C 46.078 109.294,45.857 109.698,45.913 109.844 C 45.975 110.006,45.850 110.161,45.572 110.267 C 45.212 110.403,45.132 110.555,45.130 111.102 C 45.127 111.925,44.932 112.260,44.543 112.111 C 44.300 112.018,44.248 112.113,44.248 112.648 C 44.248 113.387,44.102 113.707,43.256 114.814 C 42.925 115.248,42.655 115.746,42.655 115.922 C 42.655 116.099,42.487 116.286,42.278 116.340 C 41.988 116.416,41.921 116.540,41.986 116.878 C 42.049 117.208,41.983 117.341,41.720 117.409 C 41.455 117.479,41.391 117.610,41.456 117.950 C 41.519 118.279,41.455 118.427,41.214 118.504 C 40.996 118.573,40.885 118.776,40.885 119.106 C 40.885 119.459,40.779 119.632,40.524 119.699 C 40.242 119.773,40.187 119.888,40.272 120.227 C 40.357 120.568,40.301 120.680,40.006 120.758 C 39.711 120.835,39.655 120.947,39.741 121.289 C 39.827 121.631,39.770 121.742,39.472 121.821 C 39.144 121.906,39.110 122.003,39.213 122.556 C 39.378 123.437,39.024 124.248,38.474 124.248 C 38.005 124.248,37.971 124.363,38.233 125.053 C 38.405 125.504,38.392 125.521,37.951 125.411 C 37.498 125.297,37.491 125.309,37.605 125.986 C 37.709 126.599,37.678 126.690,37.334 126.780 C 37.027 126.860,36.964 126.978,37.034 127.341 C 37.097 127.674,37.026 127.851,36.774 127.986 C 36.490 128.138,36.448 128.285,36.543 128.792 C 36.651 129.371,36.633 129.403,36.268 129.287 C 35.902 129.171,35.883 129.205,35.980 129.802 C 36.065 130.329,36.019 130.476,35.720 130.637 C 35.423 130.796,35.373 130.953,35.445 131.493 C 35.527 132.108,35.505 132.150,35.127 132.078 C 34.743 132.004,34.725 132.042,34.817 132.725 C 34.899 133.337,34.865 133.451,34.602 133.451 C 34.338 133.451,34.304 133.571,34.379 134.242 C 34.459 134.952,34.437 135.016,34.160 134.868 C 33.742 134.644,33.625 134.808,33.752 135.442 C 33.837 135.866,33.775 136.039,33.452 136.282 C 33.091 136.555,33.067 136.651,33.240 137.145 C 33.429 137.688,33.423 137.699,32.972 137.586 L 32.511 137.470 32.620 138.391 C 32.719 139.229,32.700 139.302,32.403 139.208 C 31.974 139.072,31.832 139.469,32.045 140.210 C 32.278 141.023,32.259 141.099,31.876 140.894 C 31.468 140.676,31.270 141.036,31.435 141.694 C 31.511 141.998,31.457 142.153,31.246 142.234 C 31.022 142.320,30.963 142.526,31.002 143.075 C 31.043 143.642,30.989 143.814,30.757 143.859 C 30.391 143.930,30.203 144.466,30.356 145.000 C 30.419 145.219,30.505 145.524,30.547 145.678 C 30.602 145.876,30.507 145.954,30.224 145.944 C 29.857 145.930,29.827 146.000,29.864 146.750 C 29.898 147.433,29.854 147.566,29.598 147.546 C 29.344 147.526,29.292 147.679,29.292 148.456 C 29.292 149.061,29.205 149.444,29.046 149.544 C 28.869 149.654,28.825 149.946,28.887 150.594 C 28.967 151.423,28.945 151.488,28.602 151.453 C 28.272 151.420,28.230 151.509,28.229 152.250 C 28.228 152.863,28.138 153.149,27.892 153.330 C 27.596 153.545,27.571 153.718,27.678 154.766 C 27.795 155.909,27.786 155.952,27.440 155.843 C 27.171 155.757,27.074 155.810,27.059 156.050 C 27.032 156.466,27.027 156.413,27.170 157.378 C 27.284 158.143,27.267 158.200,26.945 158.116 C 26.488 157.996,26.359 158.366,26.557 159.226 C 26.739 160.016,26.631 160.531,26.283 160.531 C 25.919 160.531,25.809 161.107,26.008 161.971 C 26.258 163.055,26.244 163.127,25.796 163.111 C 25.412 163.098,25.400 163.145,25.454 164.458 C 25.502 165.654,25.463 165.864,25.130 166.197 C 24.739 166.588,24.738 166.621,25.077 168.637 C 25.172 169.201,25.159 169.217,24.687 169.098 L 24.199 168.976 24.325 170.758 C 24.445 172.447,24.432 172.550,24.084 172.736 C 23.680 172.953,23.614 173.878,23.875 175.705 C 24.022 176.739,23.964 176.903,23.451 176.903 C 23.039 176.903,23.014 177.388,23.261 180.549 C 23.404 182.373,23.397 182.428,23.031 182.523 C 22.628 182.629,22.483 185.316,22.615 190.235 C 22.648 191.452,22.604 192.025,22.483 191.950 C 22.360 191.874,22.302 193.715,22.304 197.644 C 22.305 200.838,22.373 203.346,22.454 203.218 C 22.536 203.088,22.614 205.008,22.629 207.524 C 22.657 212.317,22.713 212.920,23.130 212.920 C 23.349 212.920,23.380 213.352,23.332 215.708 C 23.277 218.347,23.292 218.493,23.604 218.439 C 23.916 218.385,23.927 218.491,23.804 220.369 C 23.678 222.305,23.685 222.364,24.079 222.661 C 24.469 222.955,24.477 223.012,24.288 224.151 C 24.048 225.597,24.128 225.878,24.734 225.725 C 25.143 225.623,25.174 225.653,25.074 226.051 C 25.013 226.293,24.910 227.073,24.843 227.784 L 24.723 229.078 25.193 228.989 C 25.728 228.886,25.716 228.849,25.473 229.906 C 25.265 230.808,25.380 231.504,25.737 231.504 C 26.095 231.504,26.187 231.905,26.008 232.678 C 25.736 233.849,25.780 234.035,26.302 233.935 C 26.756 233.849,26.762 233.861,26.631 234.578 C 26.378 235.971,26.415 236.200,26.881 236.148 C 27.284 236.104,27.297 236.135,27.169 236.856 C 26.931 238.198,26.951 238.320,27.408 238.302 C 27.806 238.287,27.820 238.327,27.714 239.132 C 27.618 239.850,27.658 240.030,27.973 240.324 C 28.285 240.614,28.320 240.767,28.189 241.265 C 27.960 242.137,28.080 242.523,28.511 242.293 C 28.838 242.118,28.849 242.158,28.738 243.100 C 28.629 244.025,28.648 244.097,29.020 244.195 C 29.362 244.284,29.405 244.384,29.321 244.903 C 29.246 245.363,29.304 245.576,29.567 245.801 C 29.794 245.996,29.912 246.321,29.912 246.756 C 29.912 247.196,30.013 247.473,30.216 247.586 C 30.439 247.711,30.506 247.942,30.469 248.457 C 30.433 248.959,30.496 249.186,30.693 249.262 C 30.890 249.337,30.938 249.512,30.864 249.882 C 30.787 250.266,30.856 250.484,31.136 250.745 C 31.342 250.937,31.496 251.246,31.479 251.432 C 31.407 252.222,31.494 252.416,31.869 252.297 C 32.205 252.191,32.225 252.233,32.115 252.815 C 32.023 253.308,32.060 253.472,32.282 253.557 C 32.478 253.632,32.566 253.887,32.566 254.374 C 32.566 255.038,32.594 255.076,33.000 254.974 C 33.419 254.869,33.427 254.884,33.238 255.426 C 33.067 255.918,33.089 256.025,33.414 256.288 C 33.668 256.494,33.753 256.711,33.683 256.977 C 33.605 257.275,33.673 257.390,33.970 257.468 C 34.294 257.552,34.349 257.675,34.303 258.209 C 34.254 258.776,34.292 258.845,34.634 258.809 C 34.982 258.773,35.011 258.831,34.920 259.392 C 34.844 259.859,34.895 260.070,35.124 260.237 C 35.292 260.360,35.413 260.576,35.393 260.717 C 35.321 261.217,35.402 261.416,35.675 261.416 C 35.832 261.416,35.938 261.549,35.920 261.726 C 35.862 262.298,35.928 262.478,36.195 262.478 C 36.369 262.478,36.460 262.653,36.460 262.988 C 36.460 263.339,36.564 263.526,36.794 263.586 C 37.042 263.651,37.106 263.788,37.042 264.120 C 36.978 264.453,37.045 264.595,37.303 264.677 C 37.561 264.759,37.627 264.900,37.563 265.236 C 37.496 265.584,37.561 265.707,37.852 265.783 C 38.148 265.860,38.204 265.972,38.118 266.314 C 38.032 266.656,38.088 266.768,38.383 266.845 C 38.671 266.920,38.734 267.037,38.655 267.351 C 38.580 267.651,38.653 267.812,38.931 267.961 C 39.188 268.098,39.276 268.268,39.205 268.491 C 39.137 268.707,39.229 268.909,39.474 269.081 C 39.679 269.225,39.822 269.486,39.791 269.661 C 39.758 269.846,39.890 270.060,40.103 270.169 C 40.305 270.272,40.437 270.458,40.396 270.582 C 40.355 270.706,40.465 271.024,40.642 271.289 C 40.818 271.553,40.945 271.855,40.924 271.958 C 40.902 272.061,41.124 272.375,41.416 272.655 C 41.708 272.935,41.947 273.293,41.947 273.451 C 41.947 273.610,42.196 273.973,42.499 274.259 C 42.803 274.545,43.269 275.257,43.534 275.841 C 43.799 276.425,44.160 277.022,44.336 277.168 C 44.512 277.314,44.871 277.912,45.133 278.496 C 45.395 279.080,45.736 279.663,45.891 279.792 C 46.047 279.921,46.128 280.145,46.072 280.291 C 46.010 280.452,46.235 280.827,46.649 281.251 C 47.036 281.647,47.221 281.947,47.079 281.947 C 46.938 281.947,47.144 282.275,47.552 282.699 C 47.949 283.113,48.326 283.670,48.388 283.938 C 48.753 285.498,49.011 283.992,49.063 280.000 L 49.103 276.903 49.197 280.177 L 49.292 283.451 49.439 281.416 C 49.520 280.296,49.539 278.345,49.480 277.080 C 49.421 275.814,49.379 273.995,49.388 273.038 C 49.402 271.375,49.387 271.302,49.050 271.409 C 48.719 271.514,48.703 271.460,48.795 270.566 C 48.883 269.714,48.855 269.600,48.538 269.517 C 48.267 269.447,48.203 269.317,48.268 268.977 C 48.334 268.631,48.265 268.503,47.962 268.406 C 47.620 268.298,47.585 268.197,47.680 267.599 C 47.768 267.050,47.727 266.883,47.469 266.744 C 47.224 266.614,47.166 266.420,47.223 265.931 C 47.279 265.453,47.215 265.230,46.970 265.051 C 46.736 264.880,46.659 264.634,46.697 264.189 C 46.738 263.712,46.667 263.521,46.395 263.375 C 46.104 263.220,46.059 263.069,46.145 262.540 C 46.247 261.913,46.236 261.898,45.777 262.013 C 45.311 262.130,45.306 262.122,45.418 261.420 C 45.509 260.851,45.478 260.708,45.263 260.708 C 44.882 260.708,44.770 260.294,44.965 259.613 C 45.231 258.688,45.188 258.532,44.703 258.654 C 44.280 258.760,44.275 258.747,44.371 257.814 C 44.461 256.942,44.438 256.859,44.071 256.763 C 43.724 256.672,43.688 256.581,43.789 256.042 C 43.884 255.534,43.837 255.379,43.521 255.157 C 43.216 254.943,43.160 254.777,43.247 254.342 C 43.330 253.924,43.272 253.724,42.999 253.491 C 42.693 253.230,42.658 253.054,42.755 252.274 C 42.859 251.441,42.835 251.352,42.478 251.239 C 42.117 251.124,42.097 251.042,42.209 250.146 C 42.321 249.248,42.301 249.171,41.940 249.076 C 41.581 248.982,41.559 248.899,41.661 248.034 C 41.760 247.194,41.731 247.071,41.394 246.891 C 41.069 246.717,41.029 246.576,41.107 245.867 C 41.213 244.896,41.131 244.602,40.756 244.602 C 40.522 244.602,40.497 244.417,40.594 243.373 C 40.699 242.251,40.676 242.121,40.332 241.881 C 39.988 241.640,39.967 241.517,40.083 240.431 L 40.210 239.244 39.744 239.334 L 39.277 239.423 39.396 237.960 C 39.508 236.578,39.493 236.486,39.130 236.291 C 38.765 236.096,38.751 236.005,38.864 234.610 C 38.977 233.222,38.962 233.129,38.618 233.020 C 38.171 232.878,38.091 232.540,38.258 231.504 C 38.527 229.831,38.460 229.381,37.939 229.381 L 37.471 229.381 37.585 228.186 C 37.648 227.529,37.749 226.469,37.810 225.830 C 37.915 224.734,37.894 224.639,37.435 224.148 C 36.904 223.580,36.905 223.601,37.286 218.884 C 37.390 217.593,37.374 217.497,37.035 217.408 C 36.594 217.293,36.269 214.494,36.620 213.837 C 36.893 213.328,36.889 199.966,36.616 199.211 C 36.330 198.422,36.622 195.664,36.991 195.663 C 37.282 195.662,37.306 195.011,37.157 191.185 C 37.082 189.237,37.091 189.176,37.505 188.863 C 37.955 188.523,37.966 188.031,37.585 185.088 C 37.478 184.261,37.484 184.248,37.968 184.248 L 38.460 184.248 38.346 182.699 C 38.283 181.847,38.181 180.852,38.119 180.487 C 38.012 179.852,38.028 179.823,38.498 179.823 L 38.989 179.823 38.871 178.555 C 38.806 177.857,38.705 177.096,38.647 176.863 C 38.551 176.483,38.592 176.445,39.049 176.494 C 39.623 176.556,39.639 176.474,39.393 174.674 C 39.262 173.714,39.270 173.686,39.673 173.701 C 40.141 173.719,40.160 173.573,39.918 171.796 C 39.781 170.785,39.787 170.764,40.144 170.956 C 40.656 171.230,40.747 170.989,40.606 169.739 C 40.498 168.782,40.524 168.647,40.873 168.364 C 41.219 168.083,41.242 167.971,41.090 167.292 C 40.933 166.594,40.953 166.512,41.344 166.256 C 41.730 166.003,41.759 165.895,41.659 165.051 C 41.559 164.193,41.580 164.115,41.950 164.019 C 42.321 163.922,42.341 163.849,42.228 162.999 C 42.131 162.268,42.167 162.016,42.405 161.753 C 42.636 161.498,42.678 161.237,42.593 160.611 C 42.490 159.860,42.508 159.809,42.832 159.912 C 43.401 160.092,43.511 159.888,43.322 159.001 C 43.162 158.255,43.181 158.146,43.516 157.892 C 43.816 157.665,43.867 157.488,43.783 156.973 C 43.693 156.419,43.731 156.321,44.069 156.232 C 44.416 156.142,44.447 156.052,44.342 155.434 C 44.238 154.816,44.268 154.726,44.614 154.636 C 44.963 154.544,44.992 154.456,44.887 153.800 C 44.783 153.149,44.812 153.055,45.148 152.968 C 45.474 152.882,45.514 152.775,45.435 152.184 C 45.359 151.623,45.407 151.465,45.700 151.308 C 46.000 151.147,46.040 151.004,45.946 150.418 C 45.838 149.747,45.849 149.727,46.210 149.920 C 46.737 150.202,46.964 149.919,46.722 149.282 C 46.564 148.867,46.579 148.734,46.804 148.570 C 46.977 148.443,47.080 148.095,47.080 147.635 C 47.080 147.082,47.149 146.903,47.363 146.903 C 47.589 146.903,47.634 146.746,47.584 146.124 C 47.530 145.439,47.558 145.364,47.820 145.504 C 48.406 145.818,48.522 145.696,48.402 144.892 C 48.307 144.261,48.341 144.100,48.587 144.006 C 48.827 143.914,48.864 143.761,48.770 143.257 C 48.658 142.664,48.675 142.632,49.042 142.748 C 49.407 142.864,49.426 142.830,49.332 142.245 C 49.246 141.719,49.297 141.572,49.644 141.345 C 49.922 141.163,50.029 140.960,49.968 140.729 C 49.908 140.499,50.002 140.318,50.250 140.185 C 50.524 140.038,50.595 139.877,50.519 139.575 C 50.439 139.253,50.502 139.141,50.807 139.061 C 51.092 138.986,51.172 138.864,51.105 138.605 C 51.048 138.387,51.226 137.920,51.568 137.389 C 52.209 136.393,52.515 135.791,53.250 134.071 C 53.541 133.389,53.901 132.599,54.049 132.314 C 54.197 132.029,54.278 131.730,54.228 131.650 C 54.179 131.569,54.344 131.426,54.595 131.330 C 54.963 131.190,55.032 131.074,54.947 130.735 C 54.864 130.406,54.923 130.292,55.215 130.216 C 55.504 130.140,55.566 130.024,55.486 129.705 C 55.407 129.389,55.478 129.250,55.789 129.113 C 56.044 129.001,56.180 128.803,56.154 128.582 C 56.063 127.779,56.296 127.257,56.748 127.257 C 57.143 127.257,57.175 127.202,57.084 126.681 C 56.971 126.031,57.055 125.873,57.743 125.434 C 58.090 125.214,58.230 124.978,58.230 124.615 C 58.230 124.289,58.509 123.734,59.007 123.071 C 59.434 122.501,59.914 121.717,60.074 121.327 C 60.234 120.938,60.730 120.281,61.177 119.867 C 61.800 119.290,61.965 119.027,61.888 118.733 C 61.728 118.118,62.173 117.349,63.548 115.869 C 64.465 114.883,64.772 114.442,64.612 114.343 C 64.436 114.234,64.454 114.102,64.697 113.732 C 65.050 113.193,65.590 112.854,65.844 113.011 C 65.944 113.072,66.018 112.878,66.018 112.556 C 66.018 111.929,66.783 110.788,67.958 109.664 C 68.355 109.285,68.642 108.937,68.597 108.892 C 68.503 108.798,71.123 105.471,71.459 105.257 C 71.581 105.179,71.681 105.041,71.681 104.950 C 71.681 104.725,73.881 101.703,74.816 100.645 C 75.234 100.172,75.575 99.699,75.575 99.593 C 75.575 99.488,76.177 98.760,76.912 97.975 C 77.647 97.191,79.558 95.133,81.158 93.402 C 84.699 89.573,93.902 80.475,94.292 80.418 C 94.447 80.395,95.536 79.429,96.712 78.270 C 99.367 75.654,100.315 74.863,100.646 74.990 C 100.806 75.052,101.414 74.593,102.265 73.766 C 103.793 72.284,104.301 71.955,104.984 72.005 C 105.356 72.031,105.437 71.973,105.372 71.723 C 105.250 71.255,106.046 70.606,106.881 70.494 C 107.380 70.427,107.634 70.294,107.708 70.060 C 107.968 69.242,110.762 67.275,111.876 67.126 C 112.394 67.056,112.625 66.918,112.789 66.580 C 113.082 65.977,115.063 64.643,116.062 64.376 C 116.611 64.229,117.002 63.978,117.310 63.575 C 117.692 63.074,117.850 62.996,118.392 63.043 C 118.904 63.087,119.027 63.036,119.028 62.780 C 119.030 62.349,119.429 62.130,120.218 62.127 C 120.774 62.124,120.896 62.054,120.989 61.681 C 121.060 61.401,121.225 61.239,121.441 61.239 C 121.629 61.239,121.959 61.129,122.174 60.994 C 122.390 60.859,123.084 60.530,123.717 60.263 C 124.994 59.725,129.710 57.391,130.022 57.143 C 130.131 57.056,130.355 57.037,130.519 57.100 C 130.729 57.180,130.847 57.103,130.916 56.837 C 130.987 56.567,131.154 56.460,131.504 56.460 C 131.850 56.460,132.022 56.353,132.089 56.096 C 132.171 55.783,132.274 55.748,132.818 55.850 C 133.372 55.954,133.451 55.924,133.451 55.617 C 133.451 55.064,133.956 54.779,134.936 54.779 C 135.673 54.779,135.847 54.719,135.899 54.449 C 135.953 54.169,136.070 54.137,136.676 54.233 C 137.359 54.343,137.385 54.330,137.306 53.915 C 137.228 53.509,137.261 53.489,137.842 53.583 C 138.319 53.660,138.516 53.608,138.703 53.351 C 138.879 53.110,139.121 53.033,139.578 53.073 C 140.161 53.123,140.201 53.097,140.085 52.732 C 139.986 52.420,140.017 52.358,140.232 52.441 C 141.280 52.843,141.822 52.802,141.732 52.327 C 141.646 51.878,141.666 51.866,142.308 51.969 C 142.884 52.061,142.989 52.023,143.095 51.688 C 143.203 51.347,143.300 51.316,143.922 51.421 C 144.548 51.527,144.637 51.497,144.728 51.149 C 144.817 50.807,144.912 50.773,145.505 50.867 C 146.068 50.957,146.213 50.915,146.374 50.616 C 146.520 50.342,146.717 50.266,147.196 50.298 C 147.629 50.327,147.897 50.243,148.054 50.029 C 148.244 49.769,148.436 49.738,149.211 49.841 L 150.140 49.964 150.022 49.493 L 149.904 49.023 150.877 49.137 C 151.703 49.234,151.869 49.205,151.969 48.945 C 152.069 48.684,152.231 48.656,153.057 48.759 L 154.029 48.881 153.907 48.399 C 153.780 47.889,154.126 47.863,155.733 48.264 C 156.116 48.359,156.148 48.323,156.066 47.893 L 155.975 47.417 157.218 47.539 C 158.441 47.660,158.460 47.655,158.359 47.270 C 158.259 46.886,158.281 46.880,159.394 46.999 L 160.531 47.121 160.531 46.656 C 160.531 46.206,160.556 46.195,161.283 46.320 C 162.790 46.581,163.280 46.510,163.228 46.039 C 163.187 45.664,163.237 45.630,163.690 45.720 C 165.661 46.115,166.018 46.092,166.018 45.576 C 166.018 45.130,166.062 45.097,166.544 45.194 C 166.833 45.251,167.589 45.352,168.225 45.417 L 169.381 45.536 169.381 45.069 C 169.381 44.518,169.490 44.505,171.640 44.806 C 173.115 45.012,173.514 44.947,173.130 44.563 C 172.688 44.122,172.999 44.073,175.531 44.187 C 177.952 44.297,178.124 44.284,177.899 44.011 C 177.590 43.638,177.349 43.657,181.637 43.712 C 184.616 43.751,185.133 43.719,185.133 43.497 C 185.133 43.171,187.504 42.952,188.365 43.199 C 189.094 43.408,200.902 43.415,201.450 43.206 C 202.121 42.951,204.425 43.180,204.425 43.501 C 204.425 43.734,204.862 43.757,207.789 43.674 C 209.682 43.620,211.196 43.647,211.251 43.736 C 211.304 43.823,211.264 43.894,211.161 43.894 C 211.058 43.894,210.973 43.983,210.973 44.092 C 210.973 44.235,211.640 44.255,213.363 44.163 C 215.707 44.037,215.752 44.042,215.752 44.403 C 215.752 44.829,216.384 45.058,217.078 44.883 C 217.529 44.770,218.911 45.022,219.572 45.338 C 219.774 45.435,220.619 45.488,221.448 45.456 C 222.702 45.408,222.953 45.443,222.938 45.664 C 222.918 45.963,223.463 45.996,224.823 45.777 C 225.651 45.644,225.664 45.649,225.664 46.118 C 225.664 46.594,225.665 46.594,226.681 46.475 C 227.241 46.409,227.858 46.339,228.053 46.319 C 228.333 46.291,228.394 46.373,228.347 46.707 C 228.288 47.128,228.297 47.131,229.453 47.012 C 230.563 46.899,230.619 46.911,230.619 47.270 C 230.619 47.634,230.669 47.643,232.035 47.522 C 233.403 47.401,233.451 47.410,233.451 47.775 C 233.451 48.128,233.512 48.146,234.356 48.034 C 235.232 47.918,235.255 47.925,235.064 48.282 C 234.759 48.852,234.800 48.875,235.903 48.750 C 236.791 48.649,236.955 48.677,237.057 48.942 C 237.157 49.204,237.321 49.234,238.129 49.139 C 239.041 49.032,239.077 49.044,238.982 49.409 C 238.887 49.773,238.924 49.785,239.805 49.681 C 240.662 49.580,240.720 49.596,240.618 49.917 C 240.440 50.476,240.647 50.597,241.438 50.397 C 242.105 50.227,242.196 50.246,242.473 50.612 C 242.723 50.945,242.875 50.992,243.350 50.888 C 243.821 50.784,243.972 50.830,244.188 51.138 C 244.401 51.442,244.566 51.494,245.037 51.406 C 245.596 51.301,245.617 51.316,245.528 51.779 C 245.435 52.269,245.960 52.318,247.004 51.918 C 247.174 51.852,247.257 51.944,247.257 52.200 C 247.257 52.551,247.319 52.570,248.131 52.463 C 248.976 52.351,249.001 52.360,248.899 52.750 C 248.801 53.127,248.835 53.146,249.437 53.048 C 250.017 52.954,250.076 52.981,250.040 53.325 C 250.005 53.660,250.077 53.700,250.640 53.656 C 251.110 53.619,251.311 53.685,251.396 53.905 C 251.486 54.139,251.660 54.185,252.187 54.114 C 252.828 54.028,252.859 54.047,252.780 54.458 C 252.701 54.871,252.728 54.886,253.351 54.769 C 253.921 54.662,254.017 54.695,254.102 55.023 C 254.170 55.280,254.341 55.398,254.646 55.398 C 255.077 55.398,256.311 56.035,256.431 56.320 C 256.463 56.397,256.603 56.460,256.741 56.460 C 257.067 56.460,260.778 58.392,260.855 58.601 C 260.888 58.689,261.022 58.761,261.154 58.761 C 261.528 58.761,266.372 61.232,266.372 61.423 C 266.372 61.516,266.513 61.593,266.685 61.593 C 267.415 61.593,269.822 62.775,270.054 63.246 C 270.181 63.505,270.422 63.717,270.589 63.717 C 270.906 63.717,273.318 65.389,273.423 65.682 C 273.457 65.774,273.748 65.960,274.071 66.095 C 274.395 66.230,274.812 66.493,274.998 66.680 C 275.185 66.866,275.709 67.199,276.165 67.419 C 276.620 67.639,276.947 67.892,276.893 67.981 C 276.838 68.069,276.919 68.142,277.074 68.142 C 277.436 68.142,279.539 69.451,280.405 70.216 C 280.774 70.542,281.139 70.770,281.216 70.722 C 281.293 70.674,281.745 71.030,282.220 71.512 C 282.695 71.995,283.190 72.389,283.320 72.389 C 283.451 72.389,284.091 72.928,284.743 73.586 C 285.395 74.244,286.147 74.894,286.412 75.030 C 286.678 75.166,287.315 75.707,287.828 76.233 C 288.341 76.758,288.968 77.299,289.220 77.434 C 290.088 77.898,295.621 82.943,295.814 83.446 C 295.871 83.595,296.022 83.717,296.148 83.717 C 296.429 83.717,299.555 86.867,299.705 87.301 C 299.764 87.471,299.927 87.611,300.068 87.611 C 300.209 87.611,300.573 87.925,300.877 88.309 C 301.962 89.679,301.992 89.663,306.283 85.511 C 308.035 83.815,310.027 81.984,310.708 81.441 C 311.389 80.899,313.196 79.215,314.722 77.700 C 316.249 76.185,317.918 74.629,318.432 74.242 C 319.505 73.437,321.593 71.363,321.593 71.104 C 321.593 71.008,321.215 70.602,320.752 70.201 C 320.290 69.800,319.265 68.874,318.476 68.143 C 317.686 67.412,316.690 66.560,316.261 66.250 C 315.833 65.940,315.138 65.369,314.718 64.981 C 314.298 64.594,313.635 64.065,313.246 63.807 C 312.856 63.549,312.199 62.985,311.786 62.554 C 311.372 62.123,310.907 61.770,310.752 61.770 C 310.598 61.770,309.999 61.298,309.423 60.722 C 308.847 60.146,308.096 59.558,307.754 59.415 C 307.412 59.272,306.960 58.913,306.749 58.617 C 306.538 58.321,306.105 57.993,305.787 57.888 C 305.469 57.783,304.953 57.426,304.640 57.095 C 304.328 56.764,303.713 56.318,303.272 56.105 C 302.832 55.892,302.396 55.575,302.303 55.401 C 302.209 55.227,301.952 55.038,301.730 54.982 C 301.509 54.925,301.128 54.697,300.885 54.474 C 299.704 53.397,294.627 50.265,294.060 50.265 C 293.320 50.265,291.150 48.717,291.150 48.190 C 291.150 47.982,291.023 47.946,290.592 48.032 C 290.093 48.132,289.954 48.056,289.268 47.310 C 288.600 46.581,288.423 46.481,287.868 46.519 C 287.297 46.557,287.238 46.520,287.289 46.157 C 287.339 45.794,287.280 45.757,286.721 45.799 C 286.186 45.839,285.985 45.732,285.312 45.047 C 284.881 44.607,284.385 44.248,284.211 44.248 C 284.037 44.248,283.746 44.100,283.565 43.919 C 283.385 43.739,283.026 43.538,282.769 43.474 C 282.512 43.409,282.301 43.278,282.301 43.182 C 282.301 43.087,282.147 43.009,281.960 43.009 C 281.772 43.009,281.513 42.909,281.384 42.788 C 281.256 42.666,280.653 42.333,280.044 42.047 C 279.436 41.762,278.938 41.463,278.938 41.383 C 278.938 41.304,278.784 41.239,278.597 41.239 C 278.409 41.239,278.149 41.133,278.020 41.003 C 277.890 40.874,277.566 40.713,277.299 40.646 C 277.032 40.579,276.814 40.446,276.814 40.351 C 276.814 40.255,276.698 40.177,276.556 40.177 C 276.414 40.177,275.601 39.819,274.750 39.381 C 273.899 38.942,273.104 38.584,272.985 38.584 C 272.866 38.584,272.663 38.482,272.535 38.356 C 272.406 38.231,271.962 38.029,271.549 37.907 C 271.135 37.785,270.796 37.603,270.796 37.504 C 270.796 37.404,270.657 37.343,270.487 37.368 C 270.316 37.393,269.739 37.183,269.204 36.901 C 268.668 36.619,267.872 36.253,267.434 36.087 C 265.951 35.525,264.691 34.956,264.631 34.823 C 264.599 34.750,264.440 34.689,264.277 34.687 C 263.939 34.684,261.590 33.831,261.858 33.809 C 261.956 33.801,261.894 33.712,261.722 33.612 C 261.550 33.512,261.251 33.474,261.058 33.529 C 260.866 33.584,260.549 33.674,260.354 33.729 C 260.077 33.807,260.000 33.745,260.000 33.440 C 260.000 33.078,259.942 33.059,259.139 33.166 C 258.292 33.278,258.279 33.273,258.363 32.835 C 258.443 32.416,258.414 32.397,257.870 32.506 C 257.429 32.594,257.238 32.547,257.063 32.308 C 256.897 32.081,256.662 32.014,256.210 32.067 C 255.624 32.136,255.593 32.114,255.696 31.706 C 255.803 31.277,255.793 31.273,254.884 31.381 C 254.006 31.485,253.969 31.473,254.082 31.116 C 254.195 30.760,254.156 30.747,253.227 30.843 C 252.307 30.938,252.259 30.923,252.349 30.577 C 252.441 30.225,252.398 30.216,251.267 30.332 C 250.146 30.446,250.088 30.434,250.088 30.077 C 250.088 29.729,250.025 29.710,249.216 29.821 C 248.377 29.937,248.348 29.926,248.447 29.546 C 248.547 29.164,248.520 29.155,247.639 29.272 C 246.765 29.388,246.729 29.376,246.771 28.988 C 246.819 28.539,246.549 28.496,245.199 28.741 C 244.477 28.872,244.470 28.868,244.561 28.392 C 244.658 27.886,244.293 27.861,242.690 28.260 C 242.321 28.352,242.295 28.317,242.406 27.871 L 242.529 27.381 241.617 27.502 C 241.114 27.569,240.585 27.669,240.440 27.724 C 240.247 27.799,240.177 27.697,240.177 27.343 L 240.177 26.861 239.044 26.983 C 238.019 27.092,237.914 27.074,237.938 26.784 C 237.960 26.520,237.781 26.444,236.909 26.349 C 236.329 26.285,235.824 26.145,235.788 26.037 C 235.752 25.929,235.471 25.840,235.162 25.838 C 234.854 25.837,233.845 25.679,232.920 25.487 C 231.063 25.101,230.088 25.040,230.088 25.310 C 230.088 25.407,229.997 25.487,229.884 25.487 C 229.765 25.487,229.807 25.346,229.985 25.149 C 230.428 24.660,229.974 24.558,228.312 24.773 C 226.382 25.024,226.192 25.014,226.628 24.684 C 227.288 24.185,226.728 24.001,225.226 24.224 C 223.314 24.509,223.009 24.490,223.009 24.090 C 223.009 23.602,222.443 23.526,220.262 23.717 C 218.225 23.896,218.056 23.874,218.390 23.471 C 218.760 23.026,218.308 22.965,215.517 23.088 C 213.702 23.168,212.916 23.149,213.092 23.029 C 213.651 22.648,212.894 22.563,208.083 22.468 C 205.341 22.414,203.217 22.345,203.363 22.314 C 203.509 22.284,203.389 22.198,203.097 22.124 C 202.514 21.975,190.843 21.920,190.486 22.064 M336.018 125.949 C 335.628 125.983,334.075 126.096,332.566 126.201 C 316.945 127.288,295.451 130.868,277.257 135.415 C 246.490 143.102,225.444 152.695,209.054 166.502 L 208.584 166.898 208.584 269.865 C 208.584 326.497,208.648 373.207,208.727 373.666 L 208.869 374.501 210.497 373.323 C 236.589 354.437,292.231 338.031,340.619 334.956 C 346.986 334.551,348.007 334.311,348.223 333.164 C 348.645 330.910,348.709 321.093,348.791 246.013 C 348.872 172.215,348.730 131.987,348.373 127.554 C 348.285 126.462,348.231 126.327,347.810 126.145 C 347.370 125.954,337.785 125.794,336.018 125.949 M75.821 128.655 C 75.185 128.936,75.189 128.792,75.071 156.637 C 74.996 174.263,74.924 181.070,74.864 176.018 C 74.814 171.735,74.772 196.584,74.770 231.239 C 74.769 265.894,74.810 292.615,74.862 290.619 C 74.913 288.624,75.017 296.628,75.091 308.407 C 75.223 329.389,75.315 333.262,75.692 333.639 C 75.991 333.938,78.426 334.295,82.220 334.595 C 99.671 335.975,117.803 339.405,137.345 345.021 C 162.334 352.202,181.958 361.169,197.965 372.719 C 200.683 374.680,200.616 374.645,200.796 374.204 C 201.241 373.111,201.247 351.066,200.820 282.655 C 200.779 276.181,200.809 271.084,200.886 271.327 C 200.964 271.571,201.027 253.690,201.027 231.593 C 201.027 209.496,200.963 191.615,200.885 191.858 C 200.807 192.102,200.735 186.650,200.726 179.744 L 200.708 167.186 199.568 166.139 C 177.638 145.991,125.178 129.326,81.327 128.577 C 78.319 128.525,76.040 128.558,75.821 128.655 M332.401 142.955 C 333.478 143.592,333.801 148.478,333.803 164.229 C 333.808 187.831,333.572 188.910,326.456 197.788 C 318.172 208.124,309.254 213.112,293.392 216.282 C 286.447 217.670,286.910 217.424,284.187 221.190 C 281.954 224.279,278.112 228.806,274.364 232.764 C 272.578 234.649,271.036 236.342,270.938 236.526 C 270.710 236.953,270.275 237.034,279.469 234.949 C 308.531 228.359,330.552 224.287,332.450 225.152 C 333.266 225.524,333.384 229.136,333.636 261.416 C 333.905 295.766,333.712 314.027,333.063 315.711 C 332.733 316.569,331.077 316.927,322.655 317.957 C 291.685 321.745,256.301 331.007,229.614 342.309 C 221.963 345.550,221.715 345.515,221.220 341.150 C 220.708 336.634,220.830 258.821,221.353 256.407 C 221.697 254.823,225.381 253.104,240.733 247.367 C 244.787 245.852,248.822 244.283,249.700 243.881 L 251.297 243.149 251.404 242.150 C 251.873 237.794,252.609 225.981,252.439 225.539 C 252.158 224.806,246.334 226.873,235.398 231.588 C 230.571 233.669,225.969 235.563,224.389 236.118 C 223.636 236.383,223.280 236.271,221.922 235.342 L 221.101 234.780 220.991 230.089 C 220.893 225.917,220.865 218.485,220.913 208.938 C 220.922 207.186,220.846 203.602,220.744 200.973 C 220.643 198.345,220.554 191.962,220.546 186.789 L 220.531 177.383 221.328 176.497 C 222.735 174.933,226.647 172.597,233.540 169.207 C 255.592 158.361,280.498 151.039,317.257 144.596 C 328.772 142.577,331.297 142.303,332.401 142.955 M96.018 147.795 C 117.433 150.136,145.012 157.590,165.776 166.648 C 174.723 170.551,189.504 178.556,190.153 179.850 C 190.426 180.395,190.383 338.873,190.108 342.871 C 189.919 345.618,189.856 345.857,189.144 346.523 L 188.698 346.941 187.490 346.341 C 186.826 346.011,183.774 344.463,180.708 342.900 C 157.216 330.927,124.820 320.575,97.965 316.458 C 92.253 315.582,91.378 315.277,89.853 313.630 L 88.850 312.546 88.850 231.346 L 88.850 150.147 90.061 148.977 C 90.727 148.334,91.463 147.767,91.698 147.716 C 92.935 147.449,92.846 147.448,96.018 147.795 M95.932 185.152 C 95.934 208.953,95.981 215.402,96.156 215.748 C 96.499 216.425,97.574 216.720,102.944 217.612 C 112.350 219.173,122.507 221.303,132.912 223.894 C 136.071 224.681,138.819 225.302,139.018 225.273 C 139.589 225.191,139.610 224.265,139.747 193.429 L 139.874 164.823 139.096 164.373 C 135.251 162.143,105.665 155.434,98.186 155.095 L 95.929 154.993 95.932 185.152 M146.813 166.728 C 146.214 167.697,146.267 225.543,146.867 226.661 C 147.108 227.109,148.136 227.537,153.274 229.327 C 162.490 232.536,177.298 238.429,181.150 240.420 C 182.898 241.323,182.958 241.305,183.078 239.867 C 183.592 233.676,183.320 184.129,182.767 183.286 C 181.194 180.884,147.619 165.423,146.813 166.728 M96.403 224.564 C 96.080 224.925,95.905 240.993,96.211 242.213 C 96.344 242.746,97.553 243.073,103.363 244.147 C 117.616 246.782,131.505 250.148,144.956 254.226 C 156.039 257.587,162.018 259.898,179.735 267.669 C 182.246 268.770,182.784 268.950,182.990 268.755 C 183.248 268.510,183.329 252.599,183.080 250.796 C 182.811 248.843,182.264 248.383,177.677 246.257 C 165.572 240.645,149.930 235.074,135.310 231.167 C 120.283 227.152,97.541 223.292,96.403 224.564 M323.982 233.103 C 318.779 233.463,297.741 237.767,281.538 241.788 C 276.747 242.977,276.364 243.132,275.977 244.038 C 275.551 245.039,275.276 254.700,275.544 259.267 C 275.656 261.179,275.792 265.571,275.847 269.027 C 275.902 272.482,275.993 275.608,276.049 275.972 L 276.151 276.635 277.146 276.533 C 278.682 276.375,281.623 275.841,288.850 274.407 C 300.661 272.065,307.052 270.978,317.788 269.483 C 325.438 268.419,326.100 268.290,326.275 267.833 C 326.878 266.261,326.886 233.023,326.283 232.989 C 326.088 232.978,325.053 233.029,323.982 233.103 M265.221 246.298 C 256.553 248.821,234.121 256.981,229.713 259.214 C 228.561 259.798,228.513 259.933,228.306 263.209 C 228.207 264.783,228.050 266.213,227.957 266.387 C 227.723 266.824,227.731 284.519,227.965 284.957 C 228.063 285.140,228.195 286.608,228.259 288.220 C 228.355 290.657,228.419 291.150,228.640 291.150 C 228.786 291.150,233.094 289.763,238.214 288.067 C 243.333 286.371,250.509 284.095,254.159 283.009 C 262.560 280.510,267.783 278.846,268.208 278.535 C 269.015 277.943,268.851 247.131,268.033 245.808 C 267.888 245.573,267.457 245.648,265.221 246.298 M96.016 277.185 C 96.071 292.118,96.162 305.385,96.217 306.667 L 96.318 308.997 97.495 309.279 C 98.143 309.434,101.181 310.042,104.248 310.630 C 118.555 313.371,131.332 316.518,143.363 320.264 C 149.405 322.145,150.950 322.490,151.323 322.041 C 151.815 321.448,152.103 265.564,151.619 264.566 C 150.268 261.780,109.403 250.856,97.656 250.140 L 95.916 250.034 96.016 277.185 M158.288 266.062 C 157.845 266.760,158.070 322.744,158.523 324.841 C 158.645 325.405,159.028 325.606,163.363 327.378 C 167.191 328.943,172.452 331.206,175.864 332.756 C 183.011 336.003,182.936 335.987,183.073 334.292 C 183.266 331.900,183.395 290.769,183.228 284.601 C 183.043 277.722,183.076 277.892,181.642 276.646 C 180.184 275.381,164.505 268.080,159.956 266.549 C 159.299 266.328,158.761 266.078,158.761 265.994 C 158.761 265.764,158.448 265.809,158.288 266.062 M323.009 275.332 C 322.765 275.378,319.659 275.854,316.106 276.390 C 295.333 279.523,279.928 282.707,262.566 287.458 C 251.018 290.618,235.910 295.635,230.523 298.097 L 228.407 299.065 228.316 309.400 C 228.230 319.236,228.223 319.410,228.172 313.009 C 228.137 308.486,228.064 306.422,227.949 306.708 C 227.612 307.552,227.992 335.221,228.341 335.221 C 228.443 335.221,230.345 334.506,232.567 333.632 C 255.742 324.516,287.374 316.330,316.018 312.036 C 322.892 311.005,325.897 310.462,326.156 310.203 C 326.721 309.638,326.954 278.405,326.408 276.394 C 326.131 275.374,324.875 274.981,323.009 275.332 " stroke="none" fill="#ebebeb" fill-rule="evenodd"></path><path id="path1" d="M323.540 150.391 C 304.286 153.759,286.298 157.637,274.867 160.884 C 258.054 165.659,229.407 177.445,228.790 179.841 C 228.605 180.560,228.407 223.804,228.581 225.433 C 228.694 226.487,228.728 226.555,229.086 226.447 C 229.297 226.383,231.673 225.465,234.368 224.407 C 245.824 219.907,256.954 216.106,258.672 216.106 C 260.495 216.106,260.656 219.433,259.371 230.531 C 258.919 234.432,258.831 236.283,259.097 236.283 C 259.681 236.283,264.787 231.786,270.113 226.579 C 274.757 222.040,277.618 218.570,280.609 213.848 C 281.513 212.421,282.114 211.648,282.364 211.589 C 282.572 211.540,285.133 210.982,288.053 210.349 C 300.707 207.606,305.508 206.075,310.168 203.293 C 316.896 199.279,323.709 191.153,325.693 184.779 L 326.106 183.451 326.106 167.231 C 326.106 148.213,326.363 149.897,323.540 150.391 " stroke="none" fill="#eb5b4b" fill-rule="evenodd"></path><path id="path2" d="M185.487 0.898 C 155.919 1.888,122.298 12.269,94.248 29.069 C 18.743 74.292,-16.736 166.543,7.443 254.779 C 14.490 280.493,28.250 307.086,45.635 328.584 L 47.782 331.239 47.788 342.832 C 47.795 357.383,47.844 357.921,49.302 359.379 C 51.079 361.155,53.278 361.765,69.452 364.965 C 89.446 368.921,89.179 368.836,102.320 375.408 C 135.303 391.903,157.490 399.114,184.602 402.151 C 188.767 402.617,210.451 402.855,215.221 402.486 C 240.418 400.538,265.337 393.323,292.996 379.968 C 300.377 376.404,299.810 376.551,312.389 374.951 C 330.047 372.706,333.006 372.344,344.248 371.063 C 378.221 367.191,377.313 367.424,381.830 361.392 L 382.312 360.748 382.477 320.949 L 382.641 281.150 384.614 276.018 C 401.023 233.335,403.095 187.116,390.529 144.071 C 374.484 89.103,332.935 41.551,280.619 18.279 C 250.768 5.000,221.685 -0.314,185.487 0.898 M206.339 22.129 C 220.311 22.613,236.589 25.393,249.912 29.569 C 251.518 30.073,252.991 30.523,253.186 30.570 C 253.381 30.616,253.938 30.803,254.425 30.985 C 254.912 31.166,256.704 31.803,258.407 32.400 C 260.111 32.997,261.823 33.626,262.212 33.798 C 262.602 33.971,263.239 34.213,263.628 34.337 C 264.018 34.460,264.615 34.702,264.956 34.873 C 265.296 35.045,266.275 35.473,267.131 35.825 C 275.184 39.136,284.957 44.244,293.709 49.716 C 295.360 50.749,296.797 51.633,296.902 51.681 C 297.008 51.730,297.377 51.989,297.723 52.257 C 298.069 52.524,298.418 52.743,298.498 52.743 C 298.579 52.743,298.796 52.880,298.980 53.047 C 299.165 53.214,299.583 53.513,299.910 53.711 C 300.632 54.149,303.955 56.425,305.099 57.266 C 307.253 58.849,308.049 59.452,309.171 60.354 C 313.016 63.443,313.798 64.083,314.939 65.072 C 315.629 65.672,316.529 66.428,316.937 66.754 C 317.346 67.079,318.641 68.181,319.815 69.204 L 321.950 71.062 320.577 72.389 C 318.714 74.190,312.842 79.649,311.273 81.039 C 310.573 81.660,308.686 83.419,307.080 84.949 C 305.473 86.478,303.665 88.141,303.061 88.644 L 301.962 89.558 301.012 88.584 C 300.489 88.049,299.968 87.611,299.854 87.611 C 299.739 87.611,299.646 87.498,299.646 87.361 C 299.646 87.224,299.387 86.895,299.071 86.630 C 298.754 86.366,297.314 85.003,295.871 83.603 C 291.491 79.354,286.609 75.192,281.681 71.506 C 278.402 69.052,273.960 66.018,273.647 66.018 C 273.556 66.018,273.454 65.946,273.422 65.859 C 273.239 65.369,265.544 60.987,260.337 58.408 C 238.024 47.358,215.533 43.008,186.195 44.069 C 142.464 45.651,101.437 67.008,73.481 102.743 C 72.491 104.009,71.598 105.144,71.496 105.266 C 67.153 110.493,58.780 123.895,54.162 133.009 C 34.787 171.253,31.654 218.103,45.639 260.442 C 47.382 265.720,49.178 271.001,49.371 271.416 C 49.537 271.772,49.566 271.944,49.928 274.690 C 50.138 276.281,50.055 285.144,49.825 285.703 C 49.627 286.186,48.942 285.326,46.691 281.770 C 41.957 274.289,36.786 264.652,33.965 258.053 C 33.361 256.642,32.769 255.327,32.649 255.133 C 32.530 254.938,32.376 254.542,32.309 254.254 C 32.241 253.965,32.008 253.327,31.789 252.838 C 31.300 251.740,31.261 251.630,29.628 246.726 C 28.898 244.535,28.236 242.584,28.157 242.389 C 28.078 242.195,27.879 241.518,27.716 240.885 C 26.065 234.481,25.585 232.479,24.894 229.115 C 22.892 219.367,22.500 215.361,22.187 201.416 C 22.027 194.299,22.463 181.652,23.021 177.257 C 23.477 173.666,24.912 165.350,25.586 162.401 C 25.740 161.725,26.025 160.451,26.220 159.569 C 26.939 156.310,27.894 152.596,28.747 149.735 C 28.994 148.907,29.198 148.056,29.200 147.842 C 29.202 147.629,29.277 147.409,29.367 147.354 C 29.457 147.298,29.585 146.995,29.652 146.679 C 29.719 146.364,30.123 145.064,30.550 143.790 C 30.978 142.516,31.327 141.302,31.327 141.091 C 31.327 140.880,31.403 140.708,31.496 140.708 C 31.589 140.708,31.720 140.417,31.787 140.061 C 31.854 139.705,32.016 139.207,32.148 138.955 C 32.279 138.702,32.388 138.423,32.388 138.334 C 32.389 138.163,32.739 137.250,34.719 132.246 C 45.816 104.207,64.789 78.511,88.493 59.420 C 90.195 58.049,91.668 56.861,91.767 56.780 C 91.866 56.698,92.345 56.337,92.832 55.977 C 93.319 55.616,93.796 55.256,93.894 55.176 C 94.589 54.607,99.416 51.259,102.124 49.469 C 106.301 46.707,108.877 45.190,113.628 42.692 C 114.845 42.053,115.881 41.479,115.929 41.417 C 116.020 41.301,122.855 37.909,124.610 37.109 C 125.150 36.862,126.292 36.336,127.148 35.938 C 128.004 35.541,129.713 34.776,130.945 34.237 C 132.178 33.699,133.345 33.187,133.540 33.098 C 138.177 30.997,150.679 27.364,159.650 25.512 C 174.849 22.373,187.318 21.470,206.339 22.129 M195.445 44.903 C 195.227 44.945,194.829 44.946,194.560 44.906 C 194.291 44.865,194.469 44.831,194.956 44.829 C 195.442 44.828,195.663 44.861,195.445 44.903 M201.135 85.574 C 217.980 86.696,233.440 91.412,247.876 99.833 C 250.566 101.402,254.461 103.939,255.310 104.675 L 255.841 105.136 254.690 106.215 C 254.058 106.808,252.226 108.365,250.619 109.673 C 249.013 110.982,247.355 112.347,246.935 112.708 C 246.515 113.068,246.106 113.386,246.027 113.415 C 245.947 113.444,244.966 112.869,243.845 112.138 C 225.319 100.059,200.142 95.104,176.732 98.929 C 175.567 99.119,174.581 99.242,174.541 99.201 C 174.500 99.161,174.333 99.199,174.170 99.286 C 174.007 99.374,173.559 99.486,173.176 99.536 C 170.911 99.831,164.261 101.633,160.156 103.065 C 148.222 107.227,139.180 112.685,129.702 121.447 L 128.042 122.982 123.357 122.024 C 116.674 120.657,114.513 120.145,114.514 119.926 C 114.519 118.860,123.887 109.982,129.347 105.870 C 145.240 93.900,165.415 86.484,184.602 85.559 C 185.916 85.496,187.024 85.414,187.065 85.377 C 187.260 85.199,197.713 85.346,201.135 85.574 M288.480 90.346 C 290.159 91.197,293.451 94.136,293.451 94.784 C 293.451 95.329,278.161 110.716,263.097 125.330 L 260.442 127.905 256.991 129.083 C 255.093 129.731,250.712 131.225,247.257 132.404 C 240.287 134.782,235.378 136.525,233.417 137.319 C 231.026 138.287,230.593 138.142,232.101 136.880 C 232.435 136.600,235.882 133.581,239.761 130.170 C 243.640 126.760,251.155 120.186,256.460 115.561 C 287.668 88.357,286.449 89.317,288.480 90.346 M342.967 124.546 C 342.797 124.591,342.479 124.592,342.259 124.550 C 342.039 124.508,342.177 124.471,342.566 124.469 C 342.956 124.467,343.136 124.502,342.967 124.546 M347.235 125.762 C 348.804 126.228,348.809 126.262,349.041 138.407 C 349.294 151.693,349.150 326.526,348.882 330.028 C 348.551 334.356,348.280 334.598,343.434 334.870 C 337.842 335.183,328.019 336.046,321.327 336.812 C 297.314 339.561,265.347 347.725,241.770 357.131 C 227.781 362.711,209.559 372.834,209.165 375.244 C 208.818 377.365,208.644 373.307,208.472 359.115 C 208.248 340.511,208.440 167.160,208.686 166.700 C 208.868 166.361,213.076 163.059,215.964 160.991 C 239.734 143.964,281.007 131.195,327.257 126.557 C 339.437 125.336,345.048 125.113,347.235 125.762 M85.246 128.320 C 117.410 130.138,151.579 138.591,175.762 150.713 C 185.204 155.446,198.289 164.094,200.600 167.127 L 201.035 167.699 201.093 271.180 C 201.125 328.094,201.095 374.716,201.026 374.785 C 200.958 374.853,200.016 374.255,198.934 373.456 C 196.625 371.751,195.124 370.917,194.560 371.025 C 194.273 371.080,194.159 371.017,194.159 370.805 C 194.159 369.338,180.005 361.258,168.938 356.408 C 143.729 345.360,113.616 337.701,84.602 334.959 C 76.842 334.226,75.328 333.933,75.157 333.134 C 74.285 329.066,74.332 133.167,75.206 129.499 C 75.540 128.096,77.406 127.877,85.246 128.320 M328.972 143.044 C 322.949 143.473,301.756 147.377,288.230 150.548 C 263.697 156.299,242.334 164.047,226.991 172.757 C 224.108 174.394,222.835 175.310,222.512 175.980 C 222.385 176.244,222.168 176.460,222.029 176.460 C 221.516 176.460,221.428 177.724,221.245 187.611 C 221.106 195.109,220.982 221.866,221.041 231.362 L 221.062 234.671 222.064 235.388 C 223.624 236.505,223.799 236.457,233.928 232.111 C 244.396 227.620,250.679 225.212,252.257 225.089 L 252.832 225.044 252.789 226.726 C 252.765 227.650,252.626 229.482,252.481 230.796 C 252.336 232.111,252.130 234.819,252.023 236.814 C 251.836 240.319,251.498 242.909,251.189 243.218 C 250.942 243.465,244.836 245.932,239.381 247.989 C 225.445 253.242,222.142 254.706,221.615 255.862 C 221.023 257.163,220.651 334.827,221.210 340.671 C 221.670 345.490,221.844 345.516,230.219 342.019 C 259.418 329.825,290.972 321.693,325.606 317.436 C 330.731 316.806,332.419 316.501,332.779 316.141 C 333.760 315.161,333.521 225.911,332.536 225.287 C 330.923 224.265,303.065 229.472,277.965 235.488 C 274.947 236.211,271.936 236.916,271.273 237.054 L 270.069 237.306 270.389 236.930 C 270.564 236.724,272.193 235.000,274.007 233.100 C 278.850 228.030,280.467 226.087,279.548 226.439 C 279.391 226.500,279.320 226.470,279.382 226.370 C 279.441 226.273,279.596 226.195,279.725 226.195 C 280.143 226.195,282.035 223.992,284.426 220.719 C 285.900 218.702,286.905 217.487,287.143 217.432 C 287.352 217.384,289.712 216.900,292.389 216.357 C 300.568 214.699,304.791 213.536,308.010 212.055 C 314.002 209.299,321.947 203.695,321.947 202.225 C 321.947 201.917,322.071 201.789,322.438 201.716 C 323.092 201.585,323.737 201.057,324.791 199.791 C 325.774 198.610,325.864 198.327,325.220 198.451 C 324.860 198.519,324.814 198.490,324.976 198.294 C 325.086 198.162,325.376 198.053,325.620 198.053 C 327.226 198.053,331.652 190.869,332.898 186.242 C 333.873 182.620,333.892 144.935,332.920 143.362 C 332.710 143.023,331.094 142.893,328.972 143.044 M332.109 143.824 C 332.349 143.916,332.384 144.293,332.353 146.435 L 332.316 148.938 332.220 146.462 L 332.124 143.985 331.593 143.872 C 331.208 143.790,331.168 143.753,331.446 143.738 C 331.657 143.726,331.955 143.765,332.109 143.824 M91.599 147.980 C 89.252 148.555,89.391 142.944,89.385 237.544 L 89.381 313.229 90.157 313.945 C 91.542 315.221,92.436 315.507,97.191 316.196 C 123.122 319.951,153.651 329.604,179.469 342.212 C 187.730 346.246,189.217 346.812,189.469 346.017 C 189.912 344.622,189.961 337.232,190.033 260.313 L 190.108 179.653 189.300 179.074 C 182.607 174.283,161.998 164.664,148.938 160.235 C 128.160 153.188,97.277 146.588,91.599 147.980 M92.946 148.849 C 91.661 149.153,91.013 149.566,90.906 150.152 C 90.613 151.746,90.425 188.875,90.511 228.142 C 90.562 251.748,90.548 280.022,90.478 290.973 L 90.351 310.885 90.204 292.389 C 89.995 266.257,90.159 155.021,90.410 152.377 C 90.690 149.423,91.204 148.670,92.920 148.699 L 93.540 148.709 92.946 148.849 M367.100 149.300 C 369.497 149.435,370.469 149.703,370.758 150.306 C 371.166 151.159,371.343 193.133,371.289 276.719 L 371.239 355.296 370.673 355.677 C 369.202 356.668,362.518 357.624,337.342 360.442 C 306.313 363.916,287.409 366.667,264.956 370.975 C 262.473 371.451,260.243 371.879,260.000 371.926 C 258.421 372.228,250.104 373.951,247.080 374.602 C 245.084 375.032,243.252 375.422,243.009 375.469 C 242.765 375.516,240.416 376.031,237.788 376.613 C 233.170 377.636,230.257 378.230,229.857 378.230 C 228.585 378.230,241.808 372.174,250.619 368.722 C 267.276 362.195,286.564 357.032,309.646 352.922 C 313.412 352.252,319.811 351.206,320.354 351.173 C 320.500 351.164,321.894 350.959,323.451 350.718 C 329.817 349.732,339.489 348.621,346.637 348.056 C 357.709 347.180,359.041 347.017,359.315 346.506 C 359.680 345.823,359.812 325.407,359.924 251.858 C 360.052 168.461,360.151 149.866,360.470 149.547 C 360.979 149.039,361.864 149.006,367.100 149.300 M325.664 150.442 C 325.858 150.637,326.018 150.856,326.019 150.929 C 326.019 151.002,326.099 151.540,326.196 152.124 C 327.065 157.362,326.594 181.844,325.562 185.133 C 324.133 189.683,319.043 196.609,314.342 200.400 C 308.250 205.314,302.612 207.358,284.681 211.154 L 282.018 211.718 280.699 213.769 C 278.188 217.674,275.286 221.370,272.489 224.226 C 266.911 229.920,259.824 236.283,259.061 236.283 C 258.805 236.283,259.018 233.000,259.560 228.584 C 260.404 221.716,260.354 216.934,259.432 216.440 C 258.105 215.730,248.724 218.729,233.970 224.580 C 230.994 225.760,228.506 226.726,228.441 226.726 C 228.376 226.726,228.323 216.113,228.323 203.142 L 228.322 179.558 228.984 179.184 C 229.348 178.979,230.394 178.389,231.308 177.872 C 235.372 175.577,247.631 170.271,256.726 166.870 C 274.147 160.357,289.715 156.494,322.478 150.555 C 325.458 150.015,325.244 150.022,325.664 150.442 M108.531 155.130 C 110.114 155.517,108.521 155.447,106.637 155.047 L 105.044 154.709 106.319 154.805 C 107.020 154.858,108.015 155.004,108.531 155.130 M100.973 155.224 C 115.250 157.249,138.516 163.047,139.948 164.937 C 140.480 165.639,140.147 222.873,139.602 224.544 C 139.277 225.537,138.935 225.510,132.965 224.007 C 125.170 222.044,112.931 219.461,104.779 218.058 C 98.238 216.931,96.268 216.429,96.038 215.829 C 95.594 214.674,95.416 157.108,95.850 155.354 C 96.004 154.730,97.265 154.698,100.973 155.224 M62.284 166.062 C 62.790 167.400,62.947 182.889,63.097 246.460 C 63.295 330.782,63.441 343.793,64.209 345.530 C 64.787 346.835,65.568 347.010,73.451 347.609 C 96.937 349.394,107.350 350.948,124.425 355.218 C 140.462 359.227,153.860 363.903,168.632 370.646 C 173.778 372.995,178.211 375.300,177.995 375.515 C 177.961 375.550,176.546 375.105,174.851 374.527 C 148.991 365.704,113.534 358.402,73.363 353.624 C 58.443 351.850,59.189 352.090,58.735 348.906 C 58.499 347.252,58.514 324.479,58.766 301.533 C 58.858 293.146,58.932 284.969,58.932 283.363 C 58.930 280.628,59.155 263.192,59.379 248.761 C 59.433 245.257,59.554 237.412,59.647 231.327 C 59.740 225.243,59.858 218.195,59.908 215.664 C 59.999 211.026,60.035 209.141,60.355 192.212 C 60.452 187.102,60.576 182.044,60.632 180.973 C 60.724 179.185,60.794 176.347,60.851 172.035 C 60.909 167.674,61.679 164.465,62.284 166.062 M148.058 166.653 C 155.544 169.087,178.964 180.049,182.436 182.743 L 183.348 183.451 183.345 209.204 C 183.343 234.442,183.251 240.714,182.875 241.090 C 182.744 241.221,182.222 241.066,181.123 240.569 C 180.262 240.180,178.243 239.267,176.637 238.539 C 170.788 235.888,160.098 231.762,151.302 228.759 L 146.764 227.210 146.656 226.039 C 146.366 222.876,146.328 166.195,146.617 166.195 C 146.633 166.195,147.282 166.401,148.058 166.653 M145.088 198.628 C 145.060 200.697,145.037 199.004,145.037 194.867 C 145.037 190.730,145.060 189.038,145.088 191.106 C 145.117 193.175,145.117 196.560,145.088 198.628 M38.362 209.513 C 38.328 210.268,38.301 209.650,38.301 208.142 C 38.301 206.633,38.328 206.015,38.362 206.770 C 38.395 207.524,38.395 208.759,38.362 209.513 M104.227 224.788 C 120.275 227.200,129.932 229.288,142.566 233.078 C 155.271 236.890,173.170 243.778,180.915 247.837 L 182.980 248.919 183.125 250.787 C 183.331 253.421,183.303 268.301,183.092 268.864 L 182.920 269.320 180.000 267.939 C 158.199 257.630,137.220 251.042,106.460 244.844 C 96.754 242.888,96.141 242.716,95.860 241.858 C 95.605 241.080,95.618 227.490,95.875 225.868 C 96.249 223.513,95.975 223.548,104.227 224.788 M329.204 226.471 C 328.473 226.599,327.398 226.698,326.814 226.691 L 325.752 226.678 326.991 226.457 C 327.673 226.336,328.748 226.237,329.381 226.238 L 330.531 226.239 329.204 226.471 M326.572 233.050 C 327.441 233.919,327.222 267.323,326.343 267.986 C 325.869 268.344,323.284 268.838,318.142 269.554 C 304.204 271.495,296.736 272.785,285.398 275.211 C 278.888 276.604,276.592 276.967,276.223 276.661 C 276.041 276.509,275.949 275.628,275.860 273.141 C 275.794 271.316,275.667 268.469,275.578 266.814 C 275.489 265.159,275.365 259.284,275.302 253.759 L 275.188 243.712 276.222 243.254 C 279.286 241.895,308.282 235.390,320.619 233.293 C 321.788 233.094,322.942 232.896,323.186 232.853 C 324.052 232.700,326.356 232.833,326.572 233.050 M163.770 234.232 C 167.369 235.570,168.178 236.053,165.099 235.026 C 163.589 234.522,160.823 233.326,161.084 233.290 C 161.145 233.281,162.354 233.705,163.770 234.232 M328.089 246.991 C 328.083 253.007,328.035 255.451,327.956 253.805 C 327.792 250.401,327.808 233.311,327.973 235.752 C 328.042 236.774,328.094 241.832,328.089 246.991 M252.873 240.571 C 252.836 240.987,252.805 240.690,252.804 239.912 C 252.803 239.133,252.834 238.792,252.872 239.155 C 252.910 239.517,252.911 240.154,252.873 240.571 M268.211 246.184 C 268.560 247.805,269.112 273.487,268.861 276.455 C 268.643 279.029,268.963 278.858,259.027 281.707 C 249.786 284.355,242.806 286.539,236.120 288.876 C 231.584 290.461,228.364 291.432,228.198 291.266 C 227.632 290.699,227.662 261.578,228.230 260.444 C 228.868 259.172,233.845 257.041,248.407 251.808 C 265.344 245.721,267.952 244.981,268.211 246.184 M100.531 250.274 C 116.613 252.932,146.114 260.732,150.929 263.600 L 151.858 264.153 151.848 288.847 C 151.837 316.159,151.737 321.750,151.254 322.284 C 150.862 322.718,150.235 322.577,145.011 320.878 C 133.966 317.287,120.573 313.922,105.929 311.058 C 98.613 309.627,96.495 309.137,96.155 308.797 C 95.591 308.234,95.338 251.762,95.892 250.413 C 96.201 249.661,96.724 249.645,100.531 250.274 M154.947 258.553 C 155.818 258.898,156.441 259.210,156.331 259.246 C 156.129 259.314,152.389 257.914,152.389 257.771 C 152.389 257.626,153.350 257.920,154.947 258.553 M332.468 312.362 L 332.350 315.433 331.756 315.681 C 331.429 315.818,330.900 315.920,330.581 315.910 C 330.050 315.892,330.066 315.877,330.777 315.738 C 332.327 315.433,332.212 316.297,332.212 304.958 C 332.212 299.440,332.272 286.888,332.345 277.065 L 332.478 259.204 332.532 284.248 C 332.562 298.022,332.533 310.674,332.468 312.362 M160.115 266.447 C 166.063 268.748,178.417 274.440,181.549 276.322 L 183.363 277.412 183.346 302.998 C 183.329 329.700,183.251 335.228,182.884 335.594 C 182.639 335.839,182.044 335.607,176.472 333.103 C 174.567 332.247,169.865 330.205,166.022 328.565 C 157.830 325.070,158.486 325.536,158.293 323.071 C 158.110 320.754,158.088 266.591,158.269 266.150 C 158.429 265.761,158.279 265.737,160.115 266.447 M301.239 273.376 C 300.704 273.508,299.668 273.657,298.938 273.707 C 297.462 273.809,298.035 273.582,300.000 273.287 C 301.666 273.037,302.402 273.090,301.239 273.376 M326.207 275.686 C 327.278 276.757,327.610 304.287,326.617 309.683 C 326.461 310.529,325.607 310.743,317.947 311.858 C 287.583 316.276,255.144 324.732,229.090 335.019 L 228.179 335.378 228.054 334.902 C 227.985 334.639,227.890 326.573,227.841 316.976 L 227.754 299.528 228.656 298.949 C 231.805 296.928,247.782 291.425,261.377 287.680 C 278.552 282.948,298.726 278.720,316.134 276.205 C 323.876 275.087,325.523 275.002,326.207 275.686 M309.381 276.193 C 307.818 276.496,306.266 276.684,306.396 276.554 C 306.599 276.351,308.766 275.957,309.646 275.964 L 310.531 275.971 309.381 276.193 M244.738 287.179 C 244.143 287.502,240.665 288.675,240.332 288.666 C 239.960 288.655,241.135 288.163,243.097 287.506 C 245.017 286.864,245.493 286.769,244.738 287.179 M189.332 310.044 C 189.294 310.409,189.263 310.111,189.263 309.381 C 189.263 308.650,189.294 308.352,189.332 308.717 C 189.371 309.082,189.371 309.679,189.332 310.044 M144.648 326.564 C 146.774 327.275,147.541 327.595,147.146 327.605 C 146.927 327.611,142.260 326.035,142.139 325.915 C 141.938 325.714,142.676 325.905,144.648 326.564 M255.575 331.491 C 255.227 331.692,252.073 332.743,251.819 332.743 C 251.395 332.743,251.924 332.486,253.494 331.930 C 255.062 331.373,256.193 331.135,255.575 331.491 M80.221 335.700 C 80.002 335.742,79.644 335.742,79.425 335.700 C 79.206 335.658,79.385 335.623,79.823 335.623 C 80.261 335.623,80.440 335.658,80.221 335.700 M189.294 341.299 C 189.134 344.339,189.028 345.092,188.699 345.498 L 188.396 345.872 187.959 345.500 L 187.522 345.127 187.994 345.234 C 188.753 345.406,188.908 344.877,188.994 341.817 C 189.038 340.226,189.137 339.162,189.233 339.222 C 189.329 339.281,189.354 340.154,189.294 341.299 M202.610 363.584 C 202.581 365.069,202.556 363.854,202.556 360.885 C 202.556 357.916,202.581 356.701,202.610 358.186 C 202.640 359.670,202.640 362.100,202.610 363.584 " stroke="none" fill="#231c23" fill-rule="evenodd"></path><path id="path3" d="M186.903 43.717 C 187.049 43.811,187.965 43.888,188.938 43.888 C 189.912 43.888,190.827 43.811,190.973 43.717 C 191.152 43.601,190.488 43.545,188.938 43.545 C 187.388 43.545,186.724 43.601,186.903 43.717 M198.407 43.717 C 198.761 43.945,202.602 43.945,202.743 43.717 C 202.814 43.602,202.023 43.541,200.497 43.543 C 198.911 43.544,198.228 43.601,198.407 43.717 M183.009 85.669 C 175.234 86.154,165.368 88.173,157.965 90.793 C 157.186 91.069,156.350 91.350,156.106 91.419 C 155.863 91.488,155.425 91.644,155.133 91.767 C 154.841 91.890,153.726 92.333,152.655 92.751 C 142.969 96.531,133.287 102.351,124.922 109.419 C 121.359 112.430,114.513 119.321,114.513 119.896 C 114.513 120.232,123.632 122.158,126.488 122.424 C 128.077 122.573,128.683 122.225,132.212 119.141 C 133.040 118.418,133.956 117.618,134.248 117.364 C 134.540 117.109,135.575 116.304,136.549 115.574 C 137.522 114.845,138.358 114.208,138.407 114.159 C 139.992 112.575,149.938 107.106,155.133 104.963 C 160.288 102.837,169.214 100.087,173.227 99.390 C 176.746 98.778,177.647 98.643,179.115 98.501 C 179.748 98.441,180.624 98.356,181.062 98.313 C 188.110 97.627,198.862 97.629,204.956 98.316 C 205.296 98.355,206.093 98.437,206.726 98.498 C 213.320 99.137,225.202 102.578,232.655 106.007 C 234.517 106.864,237.952 108.556,238.053 108.665 C 238.102 108.718,238.381 108.881,238.673 109.027 C 238.965 109.173,240.239 109.923,241.504 110.693 C 244.653 112.610,245.526 113.090,245.870 113.094 C 246.120 113.097,248.545 111.433,249.381 110.686 C 249.527 110.555,250.164 110.030,250.796 109.519 C 253.107 107.652,255.498 105.578,255.683 105.279 C 255.964 104.824,252.435 102.471,245.487 98.480 C 244.238 97.763,238.577 94.982,236.889 94.257 C 235.826 93.800,234.716 93.318,234.422 93.185 C 232.910 92.500,226.567 90.236,225.221 89.901 C 224.150 89.634,224.069 89.611,222.832 89.228 C 221.651 88.863,219.900 88.403,219.115 88.251 C 218.872 88.204,217.796 87.966,216.726 87.721 C 208.247 85.781,194.562 84.948,183.009 85.669 M285.474 90.815 C 282.614 92.781,275.922 98.535,240.442 129.538 C 231.286 137.539,230.152 138.765,233.120 137.457 C 234.921 136.662,246.077 132.740,255.929 129.437 C 258.119 128.702,260.085 128.011,260.297 127.900 C 261.670 127.182,293.451 95.433,293.451 94.778 C 293.451 94.135,290.150 91.193,288.480 90.346 C 287.283 89.739,286.967 89.789,285.474 90.815 M77.611 128.319 C 77.676 128.425,78.851 128.496,80.541 128.496 C 82.304 128.496,83.363 128.429,83.363 128.319 C 83.363 128.208,82.268 128.142,80.432 128.142 C 78.523 128.142,77.539 128.203,77.611 128.319 M361.361 149.154 C 360.504 149.283,360.541 147.050,360.440 203.717 C 360.298 283.399,360.162 336.804,360.095 338.496 C 359.773 346.706,359.760 346.763,358.283 346.972 C 354.833 347.460,353.626 347.580,347.352 348.060 C 345.409 348.209,343.657 348.363,343.458 348.404 C 343.260 348.444,342.460 348.524,341.681 348.582 C 340.329 348.684,333.237 349.472,332.124 349.645 C 331.314 349.771,330.461 349.878,329.292 350.001 C 328.708 350.063,328.111 350.146,327.965 350.185 C 327.819 350.225,327.301 350.301,326.814 350.354 C 325.970 350.446,322.442 350.937,321.806 351.051 C 321.531 351.100,320.114 351.325,319.469 351.421 C 319.323 351.443,318.805 351.515,318.319 351.581 C 317.832 351.648,316.956 351.786,316.372 351.888 C 315.788 351.990,315.071 352.110,314.779 352.155 C 297.313 354.819,277.342 359.493,263.540 364.147 C 262.226 364.590,260.991 364.991,260.796 365.038 C 260.602 365.085,259.646 365.412,258.673 365.765 C 257.699 366.117,255.947 366.748,254.779 367.166 C 246.101 370.272,228.182 378.230,229.867 378.230 C 230.265 378.230,233.922 377.485,236.894 376.799 C 241.703 375.687,255.037 372.829,258.230 372.224 C 259.836 371.920,261.708 371.557,262.389 371.418 C 264.122 371.064,267.972 370.348,270.894 369.836 C 272.252 369.597,274.080 369.273,274.956 369.116 C 282.850 367.693,302.220 364.684,309.204 363.795 C 309.544 363.752,311.058 363.555,312.566 363.357 C 314.075 363.160,315.588 362.965,315.929 362.923 C 316.270 362.882,318.181 362.649,320.177 362.406 C 322.173 362.163,324.602 361.878,325.575 361.773 C 326.549 361.667,327.903 361.506,328.584 361.413 C 329.265 361.321,330.181 361.208,330.619 361.163 C 331.058 361.118,331.854 361.035,332.389 360.980 C 335.000 360.709,347.577 359.282,347.965 359.212 C 348.208 359.169,348.885 359.087,349.469 359.031 C 350.053 358.975,351.088 358.855,351.770 358.764 C 352.451 358.674,353.407 358.555,353.894 358.500 C 354.907 358.386,356.169 358.228,356.814 358.133 C 357.058 358.098,357.973 357.984,358.850 357.880 C 364.671 357.190,369.813 356.274,370.555 355.794 C 371.250 355.344,371.551 173.765,370.884 157.788 C 370.855 157.106,370.815 155.177,370.794 153.501 C 370.768 151.461,370.685 150.358,370.543 150.163 C 370.272 149.793,368.347 149.452,365.165 149.211 C 362.717 149.026,362.260 149.019,361.361 149.154 M326.374 158.761 C 326.280 160.452,326.279 170.126,326.373 171.327 C 326.538 173.430,326.721 163.703,326.573 160.708 C 326.494 159.102,326.404 158.226,326.374 158.761 M95.711 166.947 C 95.583 170.536,95.667 196.257,95.806 196.396 C 95.874 196.464,95.929 189.338,95.929 180.560 C 95.929 171.783,95.899 164.602,95.862 164.602 C 95.824 164.602,95.757 165.657,95.711 166.947 M61.681 165.841 C 61.621 165.938,61.619 166.018,61.677 166.018 C 61.735 166.018,61.706 166.160,61.613 166.334 C 61.306 166.908,61.011 171.548,60.796 179.204 C 60.747 180.956,60.669 183.704,60.623 185.310 C 60.577 186.916,60.496 190.142,60.444 192.478 C 60.391 194.814,60.311 198.279,60.266 200.177 C 60.059 208.859,59.730 226.655,59.558 238.496 C 59.425 247.619,59.159 272.136,59.028 287.345 C 58.979 293.088,58.898 301.252,58.849 305.487 C 58.800 309.721,58.721 317.367,58.673 322.478 C 58.625 327.588,58.541 333.761,58.487 336.195 C 58.340 342.736,58.618 348.998,59.113 350.313 C 59.716 351.916,59.822 351.952,66.106 352.652 C 67.261 352.781,67.852 352.852,71.239 353.267 C 72.796 353.458,74.509 353.660,75.044 353.716 C 75.580 353.773,76.217 353.853,76.460 353.894 C 76.704 353.935,77.341 354.016,77.876 354.075 C 78.412 354.133,79.646 354.291,80.619 354.425 C 81.593 354.560,82.788 354.715,83.274 354.770 C 84.111 354.865,85.022 354.988,86.018 355.140 C 86.261 355.178,87.456 355.335,88.673 355.490 C 89.889 355.645,91.084 355.808,91.327 355.852 C 91.571 355.896,94.199 356.295,97.168 356.738 C 100.137 357.182,104.438 357.863,106.726 358.252 C 109.013 358.641,111.084 358.990,111.327 359.026 C 111.571 359.063,112.487 359.223,113.363 359.382 C 114.239 359.541,115.394 359.745,115.929 359.835 C 116.465 359.925,117.102 360.039,117.345 360.089 C 117.588 360.140,118.027 360.224,118.319 360.277 C 121.468 360.848,134.694 363.571,136.637 364.049 C 137.367 364.229,138.442 364.480,139.027 364.607 C 139.611 364.734,141.934 365.300,144.190 365.865 C 146.446 366.431,148.517 366.934,148.792 366.983 C 149.067 367.033,149.571 367.159,149.912 367.263 C 150.252 367.367,151.128 367.612,151.858 367.808 C 153.681 368.295,155.667 368.824,156.726 369.105 C 162.008 370.507,170.395 373.002,174.057 374.259 C 179.744 376.212,176.901 374.395,167.876 370.307 C 165.735 369.337,162.987 368.129,161.770 367.624 C 160.553 367.118,159.097 366.504,158.535 366.260 C 157.226 365.692,153.422 364.248,153.236 364.248 C 153.157 364.248,152.756 364.096,152.343 363.911 C 151.931 363.727,151.354 363.495,151.062 363.396 C 150.770 363.297,149.854 362.964,149.027 362.655 C 142.471 360.208,128.599 356.075,122.035 354.614 C 121.451 354.484,119.898 354.134,118.584 353.836 C 117.270 353.539,115.996 353.256,115.752 353.208 C 115.509 353.160,114.314 352.914,113.097 352.661 C 108.932 351.795,102.981 350.785,97.434 350.002 C 97.044 349.947,96.208 349.829,95.575 349.739 C 94.323 349.561,94.000 349.522,90.442 349.111 C 89.093 348.955,84.763 348.525,83.363 348.409 C 82.633 348.348,81.757 348.267,81.416 348.229 C 81.075 348.192,80.000 348.113,79.027 348.056 C 78.053 347.998,76.858 347.916,76.372 347.874 C 75.885 347.831,74.451 347.750,73.186 347.693 C 71.920 347.636,70.686 347.560,70.442 347.525 C 70.199 347.490,69.382 347.410,68.627 347.346 C 67.362 347.240,65.248 346.750,64.765 346.452 C 63.771 345.837,63.612 343.744,63.458 329.204 C 63.399 323.606,63.316 316.398,63.274 313.186 C 63.232 309.973,63.154 293.128,63.102 275.752 C 63.050 258.376,62.967 230.221,62.916 213.186 C 62.800 174.035,62.709 167.178,62.285 166.065 C 62.124 165.641,61.864 165.545,61.681 165.841 M349.075 169.027 C 349.075 169.465,349.109 169.644,349.151 169.425 C 349.194 169.206,349.194 168.847,349.151 168.628 C 349.109 168.409,349.075 168.588,349.075 169.027 M349.114 229.469 C 349.114 262.274,349.134 275.668,349.159 259.233 C 349.184 242.799,349.184 215.958,349.159 199.587 C 349.134 183.217,349.114 196.664,349.114 229.469 M139.975 178.717 C 139.890 186.369,139.910 207.258,140.005 209.557 C 140.067 211.066,140.132 204.237,140.148 194.381 C 140.164 184.524,140.137 176.460,140.088 176.460 C 140.040 176.460,139.989 177.476,139.975 178.717 M89.055 183.496 C 89.039 184.396,89.086 185.133,89.159 185.133 C 89.232 185.133,89.270 184.635,89.243 184.027 C 89.154 182.029,89.084 181.831,89.055 183.496 M220.683 186.298 C 220.615 193.404,220.707 198.573,220.879 197.257 C 221.030 196.097,220.984 183.934,220.828 183.778 C 220.762 183.712,220.697 184.846,220.683 186.298 M89.027 231.416 C 89.027 260.398,89.089 277.522,89.195 277.522 C 89.300 277.522,89.364 260.396,89.366 231.416 C 89.368 201.869,89.307 185.310,89.198 185.310 C 89.088 185.310,89.027 201.871,89.027 231.416 M228.367 201.947 C 228.367 202.385,228.401 202.564,228.443 202.345 C 228.486 202.126,228.486 201.768,228.443 201.549 C 228.401 201.330,228.367 201.509,228.367 201.947 M146.431 214.159 C 146.431 214.889,146.462 215.188,146.501 214.823 C 146.539 214.458,146.539 213.861,146.501 213.496 C 146.462 213.131,146.431 213.429,146.431 214.159 M95.732 228.319 C 95.550 229.360,95.568 237.942,95.753 238.230 C 95.923 238.494,95.949 238.010,95.999 233.628 C 96.028 231.011,95.857 227.603,95.732 228.319 M326.986 250.265 C 326.986 255.960,327.008 258.290,327.035 255.442 C 327.063 252.595,327.063 247.936,327.035 245.088 C 327.008 242.241,326.986 244.571,326.986 250.265 M208.400 251.150 C 208.400 255.872,208.423 257.803,208.451 255.442 C 208.479 253.082,208.479 249.219,208.451 246.858 C 208.423 244.498,208.400 246.429,208.400 251.150 M333.496 251.947 C 333.498 252.336,333.534 252.475,333.577 252.255 C 333.619 252.034,333.617 251.716,333.573 251.547 C 333.529 251.377,333.494 251.558,333.496 251.947 M333.502 254.248 C 333.503 254.735,333.538 254.913,333.578 254.644 C 333.619 254.375,333.618 253.976,333.576 253.759 C 333.534 253.541,333.501 253.761,333.502 254.248 M183.234 255.221 C 183.234 255.659,183.269 255.838,183.311 255.619 C 183.353 255.400,183.353 255.042,183.311 254.823 C 183.269 254.604,183.234 254.783,183.234 255.221 M333.519 257.257 C 333.519 258.425,333.548 258.880,333.583 258.267 C 333.617 257.655,333.617 256.699,333.582 256.144 C 333.547 255.588,333.519 256.088,333.519 257.257 M333.534 271.150 C 333.534 276.942,333.557 279.312,333.584 276.416 C 333.611 273.520,333.611 268.781,333.584 265.885 C 333.557 262.989,333.534 265.358,333.534 271.150 M275.398 263.264 C 275.398 264.510,275.467 265.310,275.575 265.310 C 275.682 265.310,275.752 264.546,275.752 263.373 C 275.752 262.273,275.676 261.390,275.575 261.327 C 275.461 261.257,275.398 261.945,275.398 263.264 M95.763 263.717 C 95.658 267.325,95.656 291.575,95.760 294.071 C 95.944 298.451,96.073 277.509,95.923 267.699 C 95.870 264.292,95.799 262.500,95.763 263.717 M158.094 268.142 C 158.094 268.482,158.131 268.622,158.175 268.451 C 158.220 268.281,158.220 268.002,158.175 267.832 C 158.131 267.662,158.094 267.801,158.094 268.142 M49.689 273.628 C 49.536 274.016,49.406 285.337,49.550 285.739 C 49.832 286.526,49.954 285.251,50.032 280.708 C 50.106 276.384,49.942 272.990,49.689 273.628 M89.055 279.336 C 89.084 281.001,89.154 280.803,89.243 278.805 C 89.270 278.196,89.232 277.699,89.159 277.699 C 89.086 277.699,89.039 278.436,89.055 279.336 M333.521 285.310 C 333.521 286.624,333.549 287.162,333.583 286.504 C 333.617 285.847,333.617 284.772,333.583 284.115 C 333.549 283.458,333.521 283.996,333.521 285.310 M326.929 295.560 C 326.915 300.566,326.939 304.625,326.983 304.580 C 327.144 304.420,327.246 290.826,327.103 288.673 C 326.995 287.043,326.949 288.856,326.929 295.560 M333.502 288.584 C 333.503 289.071,333.538 289.249,333.578 288.980 C 333.619 288.711,333.618 288.313,333.576 288.095 C 333.534 287.877,333.501 288.097,333.502 288.584 M333.514 291.770 C 333.514 292.646,333.544 293.027,333.581 292.616 C 333.618 292.205,333.618 291.488,333.582 291.023 C 333.545 290.558,333.515 290.894,333.514 291.770 M220.936 291.593 C 220.937 292.080,220.971 292.258,221.012 291.989 C 221.053 291.720,221.052 291.321,221.010 291.104 C 220.968 290.886,220.934 291.106,220.936 291.593 M349.083 291.858 C 349.083 292.491,349.115 292.750,349.155 292.434 C 349.194 292.117,349.194 291.600,349.155 291.283 C 349.115 290.967,349.083 291.226,349.083 291.858 M333.504 294.336 C 333.504 294.872,333.538 295.091,333.578 294.823 C 333.619 294.555,333.619 294.117,333.578 293.850 C 333.538 293.582,333.504 293.801,333.504 294.336 M158.098 318.319 C 158.100 318.708,158.136 318.846,158.178 318.626 C 158.221 318.406,158.219 318.088,158.175 317.918 C 158.130 317.749,158.096 317.929,158.098 318.319 M183.230 328.938 C 183.232 329.327,183.269 329.466,183.311 329.246 C 183.353 329.026,183.352 328.707,183.307 328.538 C 183.263 328.369,183.229 328.549,183.230 328.938 M208.392 348.230 C 208.393 350.080,208.419 350.812,208.451 349.858 C 208.483 348.904,208.482 347.391,208.450 346.495 C 208.418 345.600,208.392 346.381,208.392 348.230 M208.537 369.735 C 208.537 370.075,208.573 370.215,208.618 370.044 C 208.662 369.874,208.662 369.595,208.618 369.425 C 208.573 369.254,208.537 369.394,208.537 369.735 " stroke="none" fill="#545b5b" fill-rule="evenodd"></path><path id="path4" d="M74.066 72.257 L 72.832 73.540 74.115 72.306 C 75.307 71.159,75.479 70.973,75.349 70.973 C 75.322 70.973,74.745 71.551,74.066 72.257 M304.856 86.947 L 304.336 87.522 304.912 87.002 C 305.448 86.518,305.568 86.372,305.431 86.372 C 305.401 86.372,305.142 86.631,304.856 86.947 M208.570 170.708 C 208.571 172.752,208.596 173.564,208.628 172.513 C 208.659 171.461,208.659 169.788,208.627 168.796 C 208.596 167.803,208.570 168.664,208.570 170.708 M139.868 186.814 C 139.870 187.204,139.906 187.342,139.948 187.122 C 139.991 186.902,139.989 186.583,139.945 186.414 C 139.900 186.245,139.866 186.425,139.868 186.814 M95.616 188.850 C 95.616 189.190,95.653 189.330,95.697 189.159 C 95.742 188.989,95.742 188.710,95.697 188.540 C 95.653 188.369,95.616 188.509,95.616 188.850 M22.201 197.788 C 22.201 200.416,22.226 201.516,22.256 200.232 C 22.286 198.948,22.286 196.797,22.256 195.453 C 22.226 194.109,22.201 195.159,22.201 197.788 M139.871 201.947 C 139.871 202.385,139.906 202.564,139.948 202.345 C 139.990 202.126,139.990 201.768,139.948 201.549 C 139.906 201.330,139.871 201.509,139.871 201.947 M228.397 207.965 C 228.397 210.934,228.421 212.148,228.451 210.664 C 228.481 209.179,228.481 206.750,228.451 205.265 C 228.421 203.781,228.397 204.996,228.397 207.965 M146.445 209.735 C 146.445 211.535,146.471 212.272,146.504 211.372 C 146.536 210.471,146.536 208.998,146.504 208.097 C 146.471 207.197,146.445 207.934,146.445 209.735 M146.593 224.336 C 146.595 224.726,146.632 224.864,146.674 224.644 C 146.716 224.424,146.715 224.105,146.670 223.936 C 146.626 223.767,146.591 223.947,146.593 224.336 M220.936 229.292 C 220.937 229.779,220.971 229.957,221.012 229.688 C 221.053 229.419,221.052 229.021,221.010 228.803 C 220.968 228.585,220.934 228.805,220.936 229.292 M371.192 231.858 C 371.192 232.199,371.228 232.338,371.272 232.168 C 371.317 231.998,371.317 231.719,371.272 231.549 C 371.228 231.378,371.192 231.518,371.192 231.858 M183.249 233.540 C 183.248 234.416,183.278 234.797,183.315 234.386 C 183.352 233.975,183.353 233.258,183.316 232.793 C 183.280 232.328,183.249 232.664,183.249 233.540 M183.050 239.469 C 183.050 239.810,183.086 239.949,183.131 239.779 C 183.175 239.608,183.175 239.330,183.131 239.159 C 183.086 238.989,183.050 239.128,183.050 239.469 M371.195 242.920 C 371.197 243.310,371.233 243.448,371.276 243.228 C 371.318 243.008,371.316 242.689,371.272 242.520 C 371.228 242.351,371.193 242.531,371.195 242.920 M333.517 249.558 C 333.517 250.580,333.546 250.998,333.582 250.487 C 333.618 249.976,333.618 249.139,333.582 248.628 C 333.546 248.117,333.517 248.535,333.517 249.558 M268.540 253.540 C 268.542 253.929,268.578 254.068,268.621 253.847 C 268.663 253.627,268.661 253.309,268.617 253.140 C 268.573 252.970,268.538 253.150,268.540 253.540 M183.258 258.850 C 183.258 260.504,183.285 261.205,183.317 260.407 C 183.350 259.609,183.350 258.255,183.318 257.398 C 183.285 256.542,183.258 257.195,183.258 258.850 M208.406 302.301 C 208.406 325.810,208.426 335.427,208.451 323.673 C 208.476 311.918,208.476 292.684,208.451 280.929 C 208.426 269.175,208.406 278.792,208.406 302.301 M333.492 260.177 C 333.492 260.518,333.529 260.657,333.573 260.487 C 333.618 260.316,333.618 260.038,333.573 259.867 C 333.529 259.697,333.492 259.836,333.492 260.177 M183.248 265.487 C 183.248 266.314,183.278 266.653,183.315 266.239 C 183.353 265.825,183.353 265.148,183.315 264.735 C 183.278 264.321,183.248 264.659,183.248 265.487 M371.192 265.664 C 371.192 266.004,371.228 266.144,371.272 265.973 C 371.317 265.803,371.317 265.524,371.272 265.354 C 371.228 265.184,371.192 265.323,371.192 265.664 M371.195 268.584 C 371.197 268.973,371.233 269.112,371.276 268.892 C 371.318 268.672,371.316 268.353,371.272 268.184 C 371.228 268.015,371.193 268.195,371.195 268.584 M158.121 270.708 C 158.121 271.876,158.150 272.331,158.184 271.719 C 158.219 271.107,158.219 270.151,158.184 269.595 C 158.149 269.039,158.120 269.540,158.121 270.708 M371.207 270.973 C 371.207 271.606,371.239 271.865,371.278 271.549 C 371.318 271.232,371.318 270.715,371.278 270.398 C 371.239 270.082,371.207 270.341,371.207 270.973 M95.616 271.504 C 95.616 271.845,95.653 271.985,95.697 271.814 C 95.742 271.644,95.742 271.365,95.697 271.195 C 95.653 271.024,95.616 271.164,95.616 271.504 M220.967 281.239 C 220.967 286.350,220.990 288.440,221.018 285.885 C 221.045 283.330,221.045 279.148,221.018 276.593 C 220.990 274.038,220.967 276.128,220.967 281.239 M371.192 274.513 C 371.192 274.854,371.228 274.993,371.272 274.823 C 371.317 274.653,371.317 274.374,371.272 274.204 C 371.228 274.033,371.192 274.173,371.192 274.513 M333.617 278.186 C 333.611 280.108,333.591 285.166,333.573 289.425 C 333.555 293.684,333.600 297.168,333.673 297.168 C 333.746 297.168,333.805 292.111,333.805 285.929 C 333.805 279.748,333.765 274.690,333.717 274.690 C 333.668 274.690,333.623 276.263,333.617 278.186 M371.192 277.522 C 371.192 277.863,371.228 278.002,371.272 277.832 C 371.317 277.662,371.317 277.383,371.272 277.212 C 371.228 277.042,371.192 277.181,371.192 277.522 M49.429 282.124 C 49.429 282.562,49.463 282.741,49.505 282.522 C 49.548 282.303,49.548 281.945,49.505 281.726 C 49.463 281.507,49.429 281.686,49.429 282.124 M95.616 286.372 C 95.616 286.712,95.653 286.852,95.697 286.681 C 95.742 286.511,95.742 286.232,95.697 286.062 C 95.653 285.892,95.616 286.031,95.616 286.372 M151.736 313.540 C 151.737 314.124,151.770 314.341,151.810 314.023 C 151.849 313.705,151.848 313.227,151.808 312.961 C 151.767 312.695,151.735 312.956,151.736 313.540 M220.961 318.407 C 220.961 320.792,220.987 321.768,221.017 320.575 C 221.048 319.383,221.048 317.431,221.017 316.239 C 220.987 315.046,220.961 316.022,220.961 318.407 M158.101 316.991 C 158.101 317.429,158.136 317.608,158.178 317.389 C 158.220 317.170,158.220 316.812,158.178 316.593 C 158.136 316.374,158.101 316.553,158.101 316.991 M58.629 321.681 C 58.631 322.071,58.667 322.209,58.709 321.989 C 58.752 321.769,58.750 321.450,58.706 321.281 C 58.661 321.112,58.627 321.292,58.629 321.681 M183.253 326.283 C 183.254 327.451,183.282 327.906,183.317 327.294 C 183.352 326.682,183.351 325.726,183.316 325.170 C 183.281 324.614,183.253 325.115,183.253 326.283 M183.053 334.071 C 183.055 334.460,183.092 334.599,183.134 334.378 C 183.176 334.158,183.175 333.840,183.130 333.671 C 183.086 333.501,183.052 333.681,183.053 334.071 M208.566 366.637 C 208.567 368.097,208.594 368.671,208.627 367.912 C 208.661 367.153,208.660 365.959,208.627 365.257 C 208.593 364.556,208.566 365.177,208.566 366.637 " stroke="none" fill="#5d5c5b" fill-rule="evenodd"></path></g></svg>