<svg xmlns="http://www.w3.org/2000/svg" width="1024" height="1024" viewBox="0 0 1024 1024" version="1.1"><path d="M 495.500 178.075 C 498.106 178.591, 495.317 178.763, 487.500 178.568 C 479.964 178.380, 476.244 178.597, 477.500 179.152 C 478.784 179.719, 476.994 179.859, 472.500 179.542 C 467.409 179.182, 465.909 179.336, 467 180.106 C 468.104 180.885, 467.231 181.014, 463.698 180.595 C 460.241 180.184, 459.094 180.343, 459.602 181.164 C 460.105 181.979, 459.120 182.145, 456.153 181.747 C 453.357 181.372, 452.214 181.537, 452.655 182.251 C 453.095 182.963, 452.102 183.116, 449.633 182.715 C 447.094 182.303, 446.165 182.458, 446.633 183.215 C 447.099 183.970, 446.311 184.112, 444.106 183.671 C 441.832 183.216, 441.106 183.362, 441.606 184.171 C 442.106 184.981, 441.379 185.126, 439.106 184.671 C 436.832 184.216, 436.106 184.362, 436.606 185.171 C 437.106 185.981, 436.379 186.126, 434.106 185.671 C 431.848 185.220, 431.107 185.364, 431.599 186.161 C 432.089 186.953, 431.479 187.086, 429.565 186.606 C 427.585 186.109, 427.034 186.246, 427.565 187.106 C 428.097 187.965, 427.546 188.103, 425.565 187.606 C 423.572 187.105, 423.033 187.244, 423.573 188.117 C 424.092 188.958, 423.670 189.147, 422.156 188.751 C 420.970 188.441, 420 188.625, 420 189.161 C 420 189.699, 419.049 189.833, 417.875 189.460 C 416.309 188.963, 415.955 189.119, 416.531 190.050 C 417.100 190.971, 416.726 191.162, 415.156 190.751 C 413.970 190.441, 413 190.625, 413 191.161 C 413 191.699, 412.049 191.833, 410.875 191.460 C 409.349 190.976, 408.961 191.128, 409.500 192 C 410.045 192.882, 409.635 193.019, 408 192.500 C 406.365 191.981, 405.955 192.118, 406.500 193 C 407.045 193.882, 406.635 194.019, 405 193.500 C 403.314 192.965, 402.947 193.106, 403.539 194.063 C 404.100 194.971, 403.847 195.155, 402.664 194.701 C 401.748 194.350, 401 194.546, 401 195.138 C 401 195.730, 400.325 195.955, 399.500 195.638 C 398.675 195.322, 398 195.547, 398 196.138 C 398 196.730, 397.302 196.946, 396.448 196.618 C 395.475 196.245, 395.149 196.432, 395.573 197.119 C 396.031 197.859, 395.521 197.983, 394 197.500 C 392.314 196.965, 391.947 197.106, 392.539 198.063 C 393.100 198.971, 392.847 199.155, 391.664 198.701 C 390.748 198.350, 390 198.546, 390 199.138 C 390 199.730, 389.302 199.946, 388.448 199.618 C 387.594 199.291, 387.142 199.421, 387.442 199.907 C 388.101 200.973, 385.194 202.238, 383.910 201.444 C 383.409 201.135, 383 201.407, 383 202.048 C 383 202.691, 382.304 202.947, 381.448 202.618 C 380.594 202.291, 380.142 202.421, 380.442 202.907 C 381.101 203.973, 378.194 205.238, 376.910 204.444 C 376.409 204.135, 376 204.385, 376 205 C 376 205.615, 375.550 205.840, 375 205.500 C 374.450 205.160, 374 205.385, 374 206 C 374 206.615, 373.550 206.840, 373 206.500 C 372.450 206.160, 372 206.282, 372 206.770 C 372 207.768, 362.049 212.638, 360.802 212.250 C 360.361 212.113, 360 212.477, 360 213.059 C 360 213.641, 359.597 213.869, 359.105 213.565 C 358.612 213.260, 357.934 213.731, 357.596 214.609 C 357.236 215.550, 356.348 215.964, 355.440 215.615 C 354.591 215.289, 354.151 215.435, 354.463 215.939 C 354.774 216.444, 354.010 217.179, 352.765 217.575 C 351.519 217.970, 350.407 218.115, 350.293 217.897 C 350.179 217.679, 349.504 218.263, 348.793 219.195 C 348.082 220.127, 346.862 221.027, 346.083 221.195 C 345.304 221.363, 343.825 222.304, 342.797 223.286 C 341.768 224.269, 340.541 224.834, 340.068 224.542 C 339.596 224.250, 338.927 224.748, 338.581 225.649 C 338.236 226.549, 337.671 227.004, 337.325 226.659 C 336.980 226.314, 336.057 226.812, 335.275 227.766 C 334.334 228.912, 334.076 228.992, 334.513 228 C 334.876 227.175, 334.195 227.625, 333 229 C 331.805 230.375, 331.130 230.825, 331.500 230 C 331.870 229.175, 331.245 229.625, 330.109 231 C 328.974 232.375, 328.034 233.207, 328.022 232.849 C 328.010 232.491, 326.604 233.501, 324.898 235.095 C 323.192 236.689, 321.323 237.700, 320.744 237.342 C 320.165 236.984, 319.983 237.163, 320.340 237.741 C 320.973 238.765, 318.317 240.500, 316.676 240.134 C 316.222 240.033, 316.063 240.299, 316.323 240.725 C 316.582 241.151, 315.641 242.364, 314.232 243.421 C 312.667 244.594, 311.988 244.789, 312.486 243.921 C 312.935 243.139, 311.609 244.300, 309.539 246.500 C 307.470 248.700, 306.365 249.600, 307.085 248.500 C 307.804 247.400, 306.166 248.786, 303.446 251.581 C 300.726 254.376, 298.950 255.943, 299.500 255.065 C 300.050 254.187, 298.099 256.065, 295.165 259.240 C 292.230 262.415, 289.492 264.804, 289.080 264.550 C 288.130 263.963, 279.756 272.423, 280.526 273.192 C 280.840 273.506, 278.604 275.892, 275.559 278.494 C 272.513 281.096, 270.246 283.588, 270.520 284.033 C 270.795 284.477, 269.552 286.047, 267.760 287.522 C 265.967 288.997, 265.175 289.902, 266 289.533 C 266.825 289.165, 265.925 290.303, 264 292.063 C 262.075 293.824, 261.175 294.949, 262 294.563 C 262.825 294.178, 261.925 295.303, 260 297.063 C 258.075 298.824, 257.175 299.902, 258 299.460 C 259.823 298.483, 256.808 302.381, 253.050 305.860 C 251.647 307.158, 251.175 307.859, 252 307.418 C 253.314 306.715, 253.323 306.857, 252.073 308.558 C 251.288 309.626, 249.488 311.562, 248.073 312.860 C 246.658 314.158, 246.175 314.906, 247 314.523 C 247.825 314.140, 247.375 314.805, 246 316 C 244.625 317.195, 244.175 317.870, 245 317.500 C 245.825 317.130, 245.375 317.805, 244 319 C 242.625 320.195, 242.175 320.876, 243 320.513 C 244.333 319.925, 244.333 319.999, 243 321.179 C 242.175 321.910, 241.360 323.181, 241.189 324.004 C 241.018 324.827, 239.893 326.327, 238.689 327.337 C 237.485 328.347, 237.175 328.876, 238 328.513 C 239.333 327.925, 239.333 327.999, 238 329.179 C 237.175 329.910, 236.363 331.181, 236.195 332.004 C 236.027 332.827, 235.247 333.994, 234.461 334.599 C 233.674 335.203, 233.324 335.991, 233.682 336.349 C 234.040 336.707, 233.808 337, 233.167 337 C 232.525 337, 232.053 337.337, 232.118 337.750 C 232.432 339.735, 231.901 341.057, 231.011 340.507 C 230.456 340.164, 230.271 340.542, 230.589 341.371 C 230.900 342.182, 230.257 343.743, 229.161 344.839 C 228.064 345.936, 227.429 347.096, 227.750 347.417 C 228.071 347.737, 227.782 348, 227.108 348 C 226.434 348, 226.160 348.450, 226.500 349 C 226.840 349.550, 226.615 350, 226 350 C 225.385 350, 225.160 350.450, 225.500 351 C 225.840 351.550, 225.615 352, 225 352 C 224.385 352, 224.160 352.450, 224.500 353 C 224.840 353.550, 224.615 354, 224 354 C 223.385 354, 223.160 354.450, 223.500 355 C 223.840 355.550, 223.615 356, 223 356 C 222.385 356, 222.160 356.450, 222.500 357 C 222.840 357.550, 222.615 358, 222 358 C 221.385 358, 221.135 358.409, 221.444 358.910 C 222.238 360.194, 220.973 363.101, 219.907 362.442 C 219.421 362.142, 219.319 362.668, 219.681 363.612 C 220.125 364.769, 219.962 365.095, 219.181 364.612 C 218.425 364.144, 218.229 364.434, 218.618 365.448 C 218.947 366.304, 218.691 367, 218.048 367 C 217.407 367, 217.160 367.450, 217.500 368 C 217.840 368.550, 217.656 369, 217.090 369 C 216.525 369, 216.350 369.749, 216.701 370.664 C 217.128 371.775, 216.955 372.090, 216.181 371.612 C 215.425 371.144, 215.229 371.434, 215.618 372.448 C 215.946 373.302, 215.730 374, 215.138 374 C 214.546 374, 214.350 374.748, 214.701 375.664 C 215.128 376.775, 214.955 377.090, 214.181 376.612 C 213.425 376.144, 213.229 376.434, 213.618 377.448 C 213.946 378.302, 213.730 379, 213.138 379 C 212.546 379, 212.350 379.748, 212.701 380.664 C 213.128 381.775, 212.955 382.090, 212.181 381.612 C 211.425 381.144, 211.229 381.434, 211.618 382.448 C 211.946 383.302, 211.730 384, 211.138 384 C 210.546 384, 210.350 384.748, 210.701 385.664 C 211.155 386.847, 210.971 387.100, 210.063 386.539 C 209.106 385.947, 208.965 386.314, 209.500 388 C 210.019 389.635, 209.882 390.045, 209 389.500 C 208.118 388.955, 207.981 389.365, 208.500 391 C 209.035 392.686, 208.894 393.053, 207.937 392.461 C 207.029 391.900, 206.845 392.153, 207.299 393.336 C 207.650 394.251, 207.515 395, 207 395 C 206.485 395, 206.322 395.675, 206.638 396.500 C 206.955 397.325, 206.686 398, 206.040 398 C 205.297 398, 205.113 398.782, 205.540 400.125 C 206.024 401.651, 205.872 402.039, 205 401.500 C 204.118 400.955, 203.981 401.365, 204.500 403 C 205.019 404.635, 204.882 405.045, 204 404.500 C 203.128 403.961, 202.976 404.349, 203.460 405.875 C 203.833 407.049, 203.699 408, 203.161 408 C 202.625 408, 202.441 408.970, 202.751 410.156 C 203.162 411.726, 202.971 412.100, 202.050 411.531 C 201.119 410.955, 200.963 411.309, 201.460 412.875 C 201.865 414.152, 201.701 415, 201.048 415 C 200.372 415, 200.213 416.001, 200.627 417.649 C 201.106 419.560, 200.961 420.094, 200.106 419.565 C 199.246 419.034, 199.109 419.585, 199.606 421.565 C 200.103 423.546, 199.965 424.097, 199.106 423.565 C 198.254 423.039, 198.103 423.560, 198.568 425.416 C 198.978 427.050, 198.802 428, 198.089 428 C 197.369 428, 197.202 428.957, 197.627 430.649 C 198.124 432.630, 197.976 433.103, 197.039 432.524 C 196.089 431.937, 195.952 432.504, 196.473 434.875 C 196.903 436.833, 196.765 438, 196.104 438 C 195.455 438, 195.292 439.211, 195.681 441.155 C 196.150 443.498, 195.998 444.117, 195.092 443.557 C 194.176 442.991, 194.040 443.699, 194.548 446.402 C 194.997 448.798, 194.847 450, 194.099 450 C 193.342 450, 193.193 451.353, 193.640 454.153 C 194.147 457.324, 194.012 458.125, 193.066 457.541 C 192.107 456.948, 191.990 458.071, 192.547 462.529 C 193.055 466.597, 192.945 468.084, 192.173 467.607 C 191.398 467.128, 191.209 469.930, 191.525 477.216 C 191.814 483.875, 191.659 486.619, 191.085 485 C 190.486 483.310, 190.205 486.548, 190.218 495 C 190.231 503.511, 190.505 506.543, 191.079 504.500 C 191.624 502.560, 191.797 505.296, 191.569 512.242 C 191.329 519.558, 191.550 522.778, 192.264 522.337 C 192.977 521.896, 193.097 523.522, 192.639 527.414 C 192.139 531.666, 192.267 532.953, 193.135 532.416 C 193.993 531.886, 194.128 532.799, 193.640 535.847 C 193.202 538.586, 193.348 540, 194.068 540 C 194.770 540, 194.914 541.115, 194.473 543.125 C 193.954 545.487, 194.090 546.062, 195.031 545.481 C 195.983 544.892, 196.111 545.593, 195.575 548.454 C 195.048 551.261, 195.175 552.010, 196.082 551.449 C 196.966 550.903, 197.113 551.414, 196.627 553.351 C 196.202 555.043, 196.369 556, 197.089 556 C 197.802 556, 197.978 556.950, 197.568 558.584 C 197.103 560.440, 197.254 560.961, 198.106 560.435 C 198.965 559.903, 199.103 560.454, 198.606 562.435 C 198.109 564.415, 198.246 564.966, 199.106 564.435 C 199.965 563.903, 200.103 564.454, 199.606 566.435 C 199.105 568.428, 199.244 568.967, 200.117 568.427 C 200.958 567.908, 201.147 568.330, 200.751 569.844 C 200.441 571.030, 200.625 572, 201.161 572 C 201.699 572, 201.833 572.951, 201.460 574.125 C 200.976 575.651, 201.128 576.039, 202 575.500 C 202.872 574.961, 203.024 575.349, 202.540 576.875 C 202.113 578.218, 202.297 579, 203.040 579 C 203.686 579, 203.955 579.675, 203.638 580.500 C 203.322 581.325, 203.547 582, 204.138 582 C 204.730 582, 204.955 582.675, 204.638 583.500 C 204.322 584.325, 204.547 585, 205.138 585 C 205.730 585, 205.955 585.675, 205.638 586.500 C 205.322 587.325, 205.485 588, 206 588 C 206.515 588, 206.678 588.675, 206.362 589.500 C 206.045 590.325, 206.270 591, 206.862 591 C 207.454 591, 207.650 591.748, 207.299 592.664 C 206.832 593.880, 207.021 594.105, 208 593.500 C 208.979 592.895, 209.168 593.120, 208.701 594.336 C 208.350 595.251, 208.485 596, 209 596 C 209.515 596, 209.650 596.749, 209.299 597.664 C 208.832 598.880, 209.021 599.105, 210 598.500 C 210.979 597.895, 211.168 598.120, 210.701 599.336 C 210.350 600.251, 210.525 601, 211.090 601 C 211.656 601, 211.840 601.450, 211.500 602 C 211.160 602.550, 211.407 603, 212.048 603 C 212.691 603, 212.947 603.696, 212.618 604.552 C 212.229 605.566, 212.425 605.856, 213.181 605.388 C 213.955 604.910, 214.128 605.225, 213.701 606.336 C 213.350 607.251, 213.525 608, 214.090 608 C 214.656 608, 214.840 608.450, 214.500 609 C 214.160 609.550, 214.385 610, 215 610 C 215.615 610, 215.840 610.450, 215.500 611 C 215.160 611.550, 215.385 612, 216 612 C 216.615 612, 216.840 612.450, 216.500 613 C 216.160 613.550, 216.385 614, 217 614 C 217.615 614, 217.840 614.450, 217.500 615 C 217.160 615.550, 217.385 616, 218 616 C 218.615 616, 218.840 616.450, 218.500 617 C 218.160 617.550, 218.385 618, 219 618 C 219.615 618, 219.840 618.450, 219.500 619 C 219.160 619.550, 219.385 620, 220 620 C 220.615 620, 220.840 620.450, 220.500 621 C 220.160 621.550, 220.385 622, 221 622 C 221.615 622, 221.840 622.450, 221.500 623 C 221.160 623.550, 221.385 624, 222 624 C 222.615 624, 222.840 624.450, 222.500 625 C 222.160 625.550, 222.434 626, 223.108 626 C 223.782 626, 224.040 626.293, 223.682 626.651 C 223.324 627.009, 223.812 627.943, 224.766 628.725 C 225.923 629.675, 226.001 629.933, 225 629.500 C 224.175 629.143, 224.374 629.560, 225.441 630.426 C 226.509 631.292, 226.985 632, 226.500 632 C 226.015 632, 226.354 632.563, 227.254 633.250 C 228.154 633.938, 229.027 635.173, 229.195 635.996 C 229.363 636.819, 230.038 637.944, 230.695 638.496 C 231.352 639.048, 232.027 640.173, 232.195 640.996 C 232.363 641.819, 233.175 643.090, 234 643.821 C 235.333 645.001, 235.333 645.075, 234 644.487 C 233.175 644.124, 233.625 644.805, 235 646 C 236.375 647.195, 236.825 647.876, 236 647.513 C 235.112 647.121, 235.241 647.457, 236.317 648.335 C 237.316 649.150, 238.066 650.121, 237.983 650.492 C 237.901 650.863, 238.096 651.429, 238.417 651.750 C 238.737 652.071, 239 647.570, 239 641.748 C 239 635.927, 239.301 630.378, 239.670 629.418 C 240.153 628.160, 239.983 627.893, 239.063 628.461 C 238.117 629.046, 237.960 628.700, 238.460 627.125 C 238.876 625.817, 238.702 625, 238.008 625 C 237.389 625, 237.160 624.550, 237.500 624 C 237.840 623.450, 237.593 623, 236.952 623 C 236.311 623, 236.045 622.325, 236.362 621.500 C 236.678 620.675, 236.515 620, 236 620 C 235.485 620, 235.322 619.325, 235.638 618.500 C 235.955 617.675, 235.730 617, 235.138 617 C 234.547 617, 234.322 616.325, 234.638 615.500 C 234.955 614.675, 234.730 614, 234.138 614 C 233.546 614, 233.350 613.252, 233.701 612.336 C 234.168 611.120, 233.979 610.895, 233 611.500 C 232.021 612.105, 231.832 611.880, 232.299 610.664 C 232.650 609.749, 232.471 609, 231.901 609 C 231.300 609, 231.148 608.108, 231.540 606.875 C 232.024 605.349, 231.872 604.961, 231 605.500 C 230.128 606.039, 229.976 605.651, 230.460 604.125 C 230.887 602.782, 230.703 602, 229.960 602 C 229.314 602, 229.045 601.325, 229.362 600.500 C 229.678 599.675, 229.453 599, 228.862 599 C 228.270 599, 228.045 598.325, 228.362 597.500 C 228.678 596.675, 228.471 596, 227.901 596 C 227.320 596, 227.144 595.121, 227.500 594 C 227.880 592.802, 227.680 592, 227 592 C 226.320 592, 226.120 591.198, 226.500 590 C 226.880 588.802, 226.680 588, 226 588 C 225.320 588, 225.120 587.198, 225.500 586 C 225.880 584.802, 225.680 584, 225 584 C 224.320 584, 224.120 583.198, 224.500 582 C 224.869 580.838, 224.680 580, 224.048 580 C 223.389 580, 223.208 579.018, 223.589 577.500 C 223.981 575.941, 223.793 575, 223.089 575 C 222.369 575, 222.202 574.043, 222.627 572.351 C 223.124 570.370, 222.976 569.897, 222.039 570.476 C 221.089 571.063, 220.952 570.496, 221.473 568.125 C 221.933 566.028, 221.778 565, 221 565 C 220.233 565, 220.064 563.987, 220.500 562 C 220.944 559.977, 220.771 559, 219.968 559 C 219.143 559, 218.985 557.896, 219.452 555.402 C 219.957 552.710, 219.822 551.992, 218.915 552.553 C 217.993 553.122, 217.866 552.066, 218.386 548.151 C 218.865 544.538, 218.725 543, 217.918 543 C 217.098 543, 216.958 541.057, 217.430 536.250 C 217.897 531.490, 217.788 529.942, 217.061 531 C 216.339 532.051, 216.031 526.064, 216.031 511 C 216.031 495.674, 216.333 489.931, 217.083 491 C 217.838 492.078, 217.952 490.599, 217.488 485.750 C 217.031 480.983, 217.176 479, 217.982 479 C 218.772 479, 218.909 477.575, 218.426 474.358 C 217.899 470.840, 218.024 469.897, 218.942 470.464 C 219.862 471.033, 219.983 470.069, 219.442 466.464 C 218.906 462.887, 219.026 461.898, 219.929 462.456 C 220.822 463.008, 220.949 462.243, 220.425 459.454 C 219.889 456.593, 220.017 455.892, 220.969 456.481 C 221.914 457.065, 222.042 456.468, 221.500 454 C 220.967 451.573, 221.094 450.940, 222 451.500 C 222.906 452.060, 223.033 451.427, 222.500 449 C 221.956 446.523, 222.084 445.934, 223.039 446.524 C 223.976 447.103, 224.124 446.630, 223.627 444.649 C 223.213 443.001, 223.372 442, 224.048 442 C 224.680 442, 224.869 441.162, 224.500 440 C 224.120 438.802, 224.320 438, 225 438 C 225.680 438, 225.880 437.198, 225.500 436 C 225.120 434.802, 225.320 434, 226 434 C 226.680 434, 226.880 433.198, 226.500 432 C 226.151 430.900, 226.303 430, 226.839 430 C 227.375 430, 227.559 429.030, 227.249 427.844 C 226.838 426.274, 227.029 425.900, 227.950 426.469 C 228.881 427.045, 229.037 426.691, 228.540 425.125 C 228.148 423.892, 228.300 423, 228.901 423 C 229.471 423, 229.678 422.325, 229.362 421.500 C 229.045 420.675, 229.270 420, 229.862 420 C 230.453 420, 230.678 419.325, 230.362 418.500 C 230.045 417.675, 230.270 417, 230.862 417 C 231.453 417, 231.678 416.325, 231.362 415.500 C 231.045 414.675, 231.270 414, 231.862 414 C 232.453 414, 232.678 413.325, 232.362 412.500 C 232.045 411.675, 232.270 411, 232.862 411 C 233.454 411, 233.650 410.252, 233.299 409.336 C 232.832 408.120, 233.021 407.895, 234 408.500 C 234.979 409.105, 235.168 408.880, 234.701 407.664 C 234.350 406.749, 234.485 406, 235 406 C 235.515 406, 235.678 405.325, 235.362 404.500 C 235.045 403.675, 235.270 403, 235.862 403 C 236.454 403, 236.650 402.252, 236.299 401.336 C 235.832 400.120, 236.021 399.895, 237 400.500 C 237.979 401.105, 238.168 400.880, 237.701 399.664 C 237.350 398.749, 237.485 398, 238 398 C 238.515 398, 238.650 397.251, 238.299 396.336 C 237.872 395.225, 238.045 394.910, 238.819 395.388 C 239.575 395.856, 239.771 395.566, 239.382 394.552 C 239.053 393.696, 239.309 393, 239.952 393 C 240.593 393, 240.840 392.550, 240.500 392 C 240.160 391.450, 240.385 391, 241 391 C 241.615 391, 241.840 390.550, 241.500 390 C 241.160 389.450, 241.385 389, 242 389 C 242.615 389, 242.865 388.591, 242.556 388.090 C 241.762 386.806, 243.027 383.899, 244.093 384.558 C 244.579 384.858, 244.681 384.332, 244.319 383.388 C 243.875 382.231, 244.038 381.905, 244.819 382.388 C 245.562 382.848, 245.775 382.576, 245.411 381.629 C 245.100 380.818, 245.743 379.257, 246.839 378.161 C 247.936 377.064, 248.571 375.904, 248.250 375.583 C 247.929 375.263, 248.218 375, 248.892 375 C 249.566 375, 249.840 374.550, 249.500 374 C 249.160 373.450, 249.385 373, 250 373 C 250.615 373, 250.840 372.550, 250.500 372 C 250.160 371.450, 250.359 371, 250.941 371 C 251.523 371, 251.947 370.663, 251.882 370.250 C 251.568 368.265, 252.099 366.943, 252.989 367.493 C 253.554 367.843, 253.724 367.444, 253.385 366.560 C 253.036 365.652, 253.450 364.764, 254.391 364.404 C 255.269 364.066, 255.750 363.404, 255.458 362.932 C 255.166 362.459, 255.731 361.232, 256.714 360.203 C 257.696 359.175, 258.637 357.696, 258.805 356.917 C 258.973 356.137, 259.873 354.918, 260.805 354.207 C 261.737 353.496, 262.387 352.708, 262.250 352.457 C 261.564 351.203, 262.280 349.872, 265.250 346.880 C 267.037 345.079, 267.904 343.967, 267.176 344.408 C 266.088 345.067, 266.079 344.846, 267.126 343.169 C 267.827 342.047, 268.830 341.395, 269.355 341.719 C 269.882 342.045, 269.982 341.781, 269.578 341.127 C 269.146 340.427, 270.204 338.660, 272.174 336.792 C 274.003 335.058, 274.851 334.026, 274.057 334.498 C 273.263 334.970, 273.936 333.518, 275.551 331.270 C 277.167 329.023, 278.898 327.437, 279.399 327.746 C 279.899 328.056, 279.991 327.795, 279.603 327.167 C 279.194 326.505, 280.916 324.024, 283.699 321.264 C 286.339 318.646, 287.600 317.118, 286.500 317.868 C 285.400 318.618, 286.540 317.267, 289.034 314.866 C 291.528 312.465, 292.660 311.175, 291.551 312 C 290.441 312.825, 293.683 308.947, 298.754 303.383 C 303.826 297.818, 308.768 292.668, 309.738 291.939 C 310.707 291.209, 309.025 293.315, 306 296.619 C 302.975 299.923, 305.407 297.648, 311.404 291.563 C 317.401 285.478, 321.676 281.415, 320.904 282.534 C 320.132 283.653, 321.300 282.725, 323.500 280.473 C 328.728 275.120, 333.550 271.102, 332.467 273 C 331.996 273.825, 333.252 272.773, 335.257 270.661 C 337.483 268.318, 339.372 267.112, 340.106 267.566 C 340.826 268.010, 341.048 267.887, 340.660 267.259 C 340.044 266.262, 342.655 264.504, 344.250 264.841 C 344.663 264.929, 345 264.566, 345 264.036 C 345 262.712, 352.135 257.965, 353.167 258.603 C 353.625 258.886, 354 258.693, 354 258.174 C 354 257.019, 358.966 253.667, 360.676 253.667 C 361.357 253.667, 362.162 253.020, 362.465 252.230 C 362.776 251.420, 363.691 251.051, 364.560 251.385 C 365.444 251.724, 365.843 251.554, 365.493 250.989 C 364.943 250.099, 366.265 249.568, 368.250 249.882 C 368.663 249.947, 369 249.475, 369 248.833 C 369 248.192, 369.262 247.929, 369.583 248.250 C 369.904 248.571, 371.064 247.936, 372.161 246.839 C 373.257 245.743, 374.818 245.100, 375.629 245.411 C 376.576 245.775, 376.848 245.562, 376.388 244.819 C 375.905 244.038, 376.231 243.875, 377.388 244.319 C 378.544 244.762, 378.870 244.599, 378.388 243.819 C 377.905 243.038, 378.231 242.875, 379.388 243.319 C 380.544 243.762, 380.870 243.599, 380.388 242.819 C 379.905 242.038, 380.231 241.875, 381.388 242.319 C 382.332 242.681, 382.858 242.579, 382.558 242.093 C 381.899 241.027, 384.806 239.762, 386.090 240.556 C 386.591 240.865, 387 240.615, 387 240 C 387 239.385, 387.450 239.160, 388 239.500 C 388.550 239.840, 389 239.593, 389 238.952 C 389 238.309, 389.696 238.053, 390.552 238.382 C 391.406 238.709, 391.858 238.579, 391.558 238.093 C 390.899 237.027, 393.806 235.762, 395.090 236.556 C 395.591 236.865, 396 236.593, 396 235.952 C 396 235.309, 396.696 235.053, 397.552 235.382 C 398.566 235.771, 398.856 235.575, 398.388 234.819 C 397.910 234.045, 398.225 233.872, 399.336 234.299 C 400.252 234.650, 401 234.454, 401 233.862 C 401 233.270, 401.698 233.054, 402.552 233.382 C 403.525 233.755, 403.851 233.568, 403.427 232.881 C 402.969 232.141, 403.479 232.017, 405 232.500 C 406.686 233.035, 407.053 232.894, 406.461 231.937 C 405.900 231.029, 406.153 230.845, 407.336 231.299 C 408.252 231.650, 409 231.454, 409 230.862 C 409 230.270, 409.675 230.045, 410.500 230.362 C 411.325 230.678, 412 230.453, 412 229.862 C 412 229.270, 412.675 229.045, 413.500 229.362 C 414.325 229.678, 415 229.453, 415 228.862 C 415 228.270, 415.675 228.045, 416.500 228.362 C 417.325 228.678, 418 228.471, 418 227.901 C 418 227.300, 418.892 227.148, 420.125 227.540 C 421.691 228.037, 422.045 227.881, 421.469 226.950 C 420.900 226.029, 421.274 225.838, 422.844 226.249 C 424.030 226.559, 425 226.375, 425 225.839 C 425 225.301, 425.951 225.167, 427.125 225.540 C 428.682 226.034, 429.043 225.879, 428.476 224.961 C 427.894 224.020, 428.381 223.879, 430.435 224.394 C 432.415 224.891, 432.966 224.754, 432.435 223.894 C 431.903 223.035, 432.454 222.897, 434.435 223.394 C 436.415 223.891, 436.966 223.754, 436.435 222.894 C 435.903 222.035, 436.454 221.897, 438.435 222.394 C 440.427 222.894, 440.967 222.756, 440.428 221.884 C 439.886 221.006, 440.542 220.858, 442.894 221.329 C 445.168 221.784, 445.894 221.638, 445.394 220.829 C 444.894 220.019, 445.621 219.874, 447.894 220.329 C 450.141 220.778, 450.892 220.634, 450.405 219.847 C 449.912 219.048, 450.793 218.926, 453.454 219.425 C 456.271 219.954, 457.011 219.827, 456.445 218.911 C 455.877 217.992, 456.767 217.858, 460.097 218.362 C 463.409 218.863, 464.128 218.757, 463 217.933 C 461.877 217.113, 463.008 216.971, 467.500 217.368 C 471.723 217.741, 472.908 217.615, 471.500 216.940 C 470.129 216.284, 472.175 216.135, 478 216.468 C 483.511 216.783, 485.797 216.635, 484.500 216.047 C 483.223 215.469, 489.732 215.141, 502.500 215.141 C 515.063 215.141, 521.756 215.473, 520.500 216.034 C 519.215 216.607, 521.361 216.756, 526.500 216.449 C 532.122 216.114, 533.906 216.263, 532.500 216.951 C 531.071 217.650, 532.041 217.754, 535.901 217.316 C 539.809 216.872, 541.108 217.017, 540.599 217.839 C 540.095 218.656, 541.249 218.815, 544.698 218.405 C 548.220 217.987, 549.100 218.116, 548 218.889 C 546.892 219.668, 547.520 219.779, 550.405 219.316 C 553.204 218.866, 554.111 219.011, 553.606 219.829 C 553.106 220.638, 553.832 220.784, 556.106 220.329 C 558.379 219.874, 559.106 220.019, 558.606 220.829 C 558.106 221.638, 558.832 221.784, 561.106 221.329 C 563.458 220.858, 564.114 221.006, 563.572 221.884 C 563.033 222.756, 563.573 222.894, 565.565 222.394 C 567.479 221.914, 568.089 222.047, 567.599 222.839 C 567.107 223.636, 567.848 223.780, 570.106 223.329 C 572.254 222.899, 573.094 223.038, 572.654 223.751 C 572.234 224.431, 572.774 224.610, 574.155 224.249 C 575.726 223.838, 576.100 224.029, 575.531 224.950 C 574.955 225.881, 575.309 226.037, 576.875 225.540 C 578.049 225.167, 579 225.301, 579 225.839 C 579 226.375, 579.970 226.559, 581.156 226.249 C 582.538 225.888, 583.076 226.067, 582.655 226.749 C 582.234 227.431, 582.772 227.611, 584.155 227.249 C 585.726 226.838, 586.100 227.029, 585.531 227.950 C 584.955 228.881, 585.309 229.037, 586.875 228.540 C 588.108 228.148, 589 228.300, 589 228.901 C 589 229.471, 589.675 229.678, 590.500 229.362 C 591.325 229.045, 592 229.270, 592 229.862 C 592 230.454, 592.748 230.650, 593.664 230.299 C 594.847 229.845, 595.100 230.029, 594.539 230.937 C 593.947 231.894, 594.314 232.035, 596 231.500 C 597.427 231.047, 598.021 231.157, 597.624 231.800 C 597.240 232.421, 597.831 232.595, 599.155 232.249 C 600.623 231.865, 601.086 232.051, 600.604 232.831 C 600.131 233.598, 600.464 233.759, 601.612 233.319 C 602.769 232.875, 603.095 233.038, 602.612 233.819 C 602.144 234.575, 602.434 234.771, 603.448 234.382 C 604.302 234.054, 605 234.270, 605 234.862 C 605 235.454, 605.748 235.650, 606.664 235.299 C 607.775 234.872, 608.090 235.045, 607.612 235.819 C 607.144 236.575, 607.434 236.771, 608.448 236.382 C 609.304 236.053, 610 236.309, 610 236.952 C 610 237.593, 610.409 237.865, 610.910 237.556 C 612.194 236.762, 615.101 238.027, 614.442 239.093 C 614.142 239.579, 614.668 239.681, 615.612 239.319 C 616.769 238.875, 617.095 239.038, 616.612 239.819 C 616.130 240.599, 616.456 240.762, 617.612 240.319 C 618.769 239.875, 619.095 240.038, 618.612 240.819 C 618.130 241.599, 618.456 241.762, 619.612 241.319 C 620.769 240.875, 621.095 241.038, 620.612 241.819 C 620.130 242.599, 620.456 242.762, 621.612 242.319 C 622.868 241.836, 623.109 242.015, 622.510 242.985 C 621.990 243.826, 622.079 244.069, 622.755 243.651 C 624.154 242.787, 627.145 243.957, 626.442 245.093 C 626.142 245.579, 626.668 245.681, 627.612 245.319 C 628.769 244.875, 629.095 245.038, 628.612 245.819 C 628.130 246.599, 628.456 246.762, 629.612 246.319 C 630.769 245.875, 631.095 246.038, 630.612 246.819 C 630.130 247.599, 630.456 247.762, 631.612 247.319 C 632.901 246.824, 633.123 247.013, 632.504 248.080 C 632.050 248.861, 632.034 249.180, 632.466 248.790 C 633.457 247.896, 639 250.691, 639 252.085 C 639 252.653, 639.366 252.892, 639.812 252.616 C 640.982 251.893, 646.164 255.502, 645.258 256.409 C 644.841 256.826, 644.950 257.076, 645.500 256.965 C 647.641 256.533, 649.089 257.047, 648.485 258.025 C 648.136 258.588, 648.222 258.985, 648.676 258.906 C 650.806 258.536, 652.052 259.106, 651.405 260.155 C 650.956 260.879, 651.131 261.037, 651.873 260.578 C 652.573 260.146, 654.340 261.204, 656.208 263.174 C 657.942 265.003, 659.022 265.825, 658.608 265 C 658.194 264.175, 659.062 264.850, 660.537 266.500 C 662.013 268.150, 662.881 268.877, 662.467 268.115 C 662.053 267.353, 663.129 267.775, 664.857 269.053 C 667.884 271.290, 669.222 272.874, 666.845 271.405 C 666.124 270.959, 665.963 271.131, 666.415 271.862 C 666.813 272.506, 667.471 272.827, 667.877 272.576 C 668.284 272.325, 669.736 273.105, 671.105 274.310 C 672.474 275.514, 672.898 276.050, 672.047 275.500 C 670.701 274.630, 670.678 274.726, 671.863 276.239 C 672.613 277.195, 673.555 277.775, 673.956 277.527 C 675.142 276.794, 686.074 287.072, 685.352 288.240 C 684.988 288.828, 685.139 289.032, 685.687 288.693 C 686.956 287.909, 693.296 294.370, 692.268 295.399 C 691.845 295.821, 692.155 296.017, 692.955 295.833 C 693.755 295.650, 694.430 296.132, 694.455 296.905 C 694.542 299.622, 697.842 298.756, 701.153 295.147 L 704.500 291.500 700.927 294.500 C 698.961 296.150, 700.509 294.489, 704.367 290.809 C 708.224 287.128, 711.673 284.298, 712.032 284.520 C 712.390 284.741, 714.217 283.252, 716.092 281.211 L 719.500 277.500 715.949 280.500 C 713.996 282.150, 715.571 280.506, 719.449 276.846 C 723.327 273.186, 726.777 270.363, 727.116 270.573 C 727.455 270.782, 728.532 270.070, 729.508 268.991 C 731.230 267.089, 731.149 266.900, 726.892 262.842 C 724.476 260.540, 723.400 259.296, 724.500 260.078 C 726.351 261.394, 726.396 261.368, 725.107 259.726 C 724.342 258.750, 723.495 258.172, 723.226 258.441 C 722.470 259.197, 718.506 256.115, 718.455 254.731 C 718.430 254.054, 717.969 253.579, 717.430 253.675 C 716.892 253.771, 715.338 252.944, 713.976 251.838 C 712.614 250.732, 712.132 250.160, 712.905 250.568 C 713.839 251.061, 714.067 250.917, 713.585 250.138 C 713.187 249.494, 712.543 249.165, 712.153 249.405 C 711.763 249.646, 710.332 248.940, 708.972 247.835 C 707.612 246.730, 707.132 246.160, 707.905 246.568 C 708.839 247.061, 709.067 246.917, 708.585 246.138 C 708.187 245.494, 707.509 245.185, 707.078 245.452 C 706.647 245.718, 705.441 245.242, 704.397 244.394 C 703.354 243.546, 703.132 243.180, 703.905 243.580 C 704.836 244.064, 705.065 243.915, 704.585 243.138 C 704.187 242.494, 703.509 242.185, 703.078 242.452 C 702.647 242.718, 701.441 242.242, 700.397 241.394 C 699.354 240.546, 699.175 240.182, 700 240.586 C 700.882 241.018, 701.157 240.945, 700.667 240.410 C 700.208 239.910, 699.421 239.444, 698.917 239.375 C 698.412 239.306, 697.523 239.194, 696.941 239.125 C 696.359 239.056, 696.167 238.539, 696.515 237.975 C 696.864 237.412, 696.778 237.015, 696.324 237.094 C 694.282 237.448, 692.936 236.912, 693.515 235.975 C 693.864 235.412, 693.778 235.015, 693.324 235.094 C 691.282 235.448, 689.936 234.912, 690.515 233.975 C 690.864 233.412, 690.778 233.015, 690.324 233.094 C 688.194 233.464, 686.948 232.894, 687.595 231.845 C 688.029 231.144, 687.871 230.962, 687.191 231.382 C 686.576 231.762, 685.157 231.157, 684.036 230.036 C 682.916 228.916, 682 228.250, 682 228.557 C 682 228.863, 680.674 228.330, 679.054 227.373 C 677.434 226.416, 676.379 225.196, 676.709 224.662 C 677.065 224.086, 676.778 224.019, 676.003 224.498 C 675.176 225.009, 674.185 224.606, 673.305 223.403 C 672.540 222.356, 671.708 221.613, 671.457 221.750 C 670.183 222.447, 668.970 221.857, 669.595 220.845 C 670.067 220.082, 669.866 219.965, 669.003 220.498 C 668.176 221.009, 667.185 220.606, 666.305 219.403 C 665.540 218.356, 664.708 217.613, 664.457 217.750 C 663.279 218.395, 661.947 217.894, 662.493 217.011 C 662.856 216.424, 662.407 216.290, 661.388 216.681 C 660.231 217.125, 659.905 216.962, 660.388 216.181 C 660.870 215.401, 660.544 215.238, 659.388 215.681 C 658.231 216.125, 657.905 215.962, 658.388 215.181 C 658.870 214.401, 658.544 214.238, 657.388 214.681 C 656.231 215.125, 655.905 214.962, 656.388 214.181 C 656.870 213.401, 656.544 213.238, 655.388 213.681 C 654.231 214.125, 653.905 213.962, 654.388 213.181 C 654.870 212.401, 654.544 212.238, 653.388 212.681 C 652.231 213.125, 651.905 212.962, 652.388 212.181 C 652.870 211.401, 652.544 211.238, 651.388 211.681 C 650.231 212.125, 649.905 211.962, 650.388 211.181 C 650.870 210.401, 650.544 210.238, 649.388 210.681 C 648.231 211.125, 647.905 210.962, 648.388 210.181 C 648.870 209.401, 648.544 209.238, 647.388 209.681 C 646.231 210.125, 645.905 209.962, 646.388 209.181 C 646.870 208.401, 646.544 208.238, 645.388 208.681 C 644.231 209.125, 643.905 208.962, 644.388 208.181 C 644.870 207.401, 644.544 207.238, 643.388 207.681 C 642.231 208.125, 641.905 207.962, 642.388 207.181 C 642.856 206.425, 642.566 206.229, 641.552 206.618 C 640.696 206.947, 640 206.691, 640 206.048 C 640 205.407, 639.591 205.135, 639.090 205.444 C 637.875 206.195, 634.882 205, 635.495 204.008 C 635.761 203.578, 635.421 203.246, 634.739 203.270 C 631.530 203.386, 629.936 202.913, 630.493 202.011 C 630.856 201.424, 630.407 201.290, 629.388 201.681 C 628.132 202.164, 627.891 201.985, 628.490 201.015 C 629.037 200.131, 628.923 199.930, 628.146 200.410 C 626.543 201.400, 622.822 200.097, 623.611 198.821 C 624.024 198.153, 623.453 198.039, 622 198.500 C 620.573 198.953, 619.979 198.843, 620.376 198.200 C 620.760 197.579, 620.169 197.405, 618.845 197.751 C 617.377 198.135, 616.914 197.949, 617.396 197.169 C 617.855 196.426, 617.558 196.232, 616.552 196.618 C 615.698 196.946, 615 196.730, 615 196.138 C 615 195.546, 614.252 195.350, 613.336 195.701 C 612.153 196.155, 611.900 195.971, 612.461 195.063 C 613.053 194.106, 612.686 193.965, 611 194.500 C 609.365 195.019, 608.955 194.882, 609.500 194 C 610.045 193.118, 609.635 192.981, 608 193.500 C 606.427 193.999, 605.963 193.869, 606.459 193.067 C 606.960 192.255, 606.369 192.120, 604.435 192.606 C 602.627 193.060, 601.922 192.935, 602.352 192.239 C 602.765 191.571, 602.214 191.393, 600.845 191.751 C 599.462 192.112, 598.924 191.933, 599.345 191.251 C 599.766 190.569, 599.228 190.389, 597.845 190.751 C 596.330 191.147, 595.908 190.958, 596.427 190.117 C 596.967 189.244, 596.428 189.105, 594.435 189.606 C 592.454 190.103, 591.903 189.965, 592.435 189.106 C 592.966 188.246, 592.415 188.109, 590.435 188.606 C 588.454 189.103, 587.903 188.965, 588.435 188.106 C 588.966 187.246, 588.415 187.109, 586.435 187.606 C 584.454 188.103, 583.903 187.965, 584.435 187.106 C 584.966 186.246, 584.415 186.109, 582.435 186.606 C 580.521 187.086, 579.911 186.953, 580.401 186.161 C 580.890 185.368, 580.112 185.200, 577.800 185.599 C 575.312 186.028, 574.869 185.908, 576 185.113 C 577.109 184.332, 576.483 184.220, 573.595 184.684 C 571.158 185.076, 569.916 184.945, 570.292 184.337 C 570.652 183.754, 569.609 183.519, 567.697 183.752 C 565.202 184.056, 564.829 183.903, 566 183.057 C 567.125 182.243, 566.376 182.120, 563 182.567 C 559.602 183.016, 558.867 182.893, 560 182.067 C 561.128 181.243, 560.409 181.137, 557.097 181.638 C 553.985 182.109, 552.895 181.979, 553.379 181.196 C 553.863 180.413, 552.510 180.245, 548.782 180.625 C 544.868 181.024, 543.888 180.886, 545 180.091 C 546.104 179.302, 544.784 179.153, 540 179.527 C 535.700 179.864, 534.177 179.730, 535.500 179.132 C 536.781 178.553, 533.005 178.341, 525 178.543 C 516.811 178.750, 514.052 178.590, 517 178.079 C 520.111 177.541, 516.871 177.298, 506.500 177.292 C 496.451 177.287, 492.820 177.545, 495.500 178.075 M 285.489 555.500 C 285.489 656.700, 285.607 698.248, 285.750 647.829 C 285.893 597.411, 285.893 514.611, 285.750 463.829 C 285.607 413.048, 285.489 454.300, 285.489 555.500 M 513.484 556.500 C 513.484 620.850, 513.603 647.028, 513.750 614.673 C 513.896 582.318, 513.896 529.668, 513.750 497.673 C 513.603 465.678, 513.484 492.150, 513.484 556.500 M 494.487 610 C 494.487 691.125, 494.605 724.312, 494.750 683.750 C 494.895 643.187, 494.895 576.812, 494.750 536.250 C 494.605 495.687, 494.487 528.875, 494.487 610 M 549.382 515.500 C 549.384 522.100, 549.546 524.670, 549.741 521.211 C 549.937 517.752, 549.936 512.352, 549.738 509.211 C 549.540 506.070, 549.380 508.900, 549.382 515.500 M 648.370 598 C 648.370 603.775, 648.535 606.138, 648.737 603.250 C 648.939 600.362, 648.939 595.638, 648.737 592.750 C 648.535 589.862, 648.370 592.225, 648.370 598 M 549.460 647.500 C 549.460 672.250, 549.590 682.232, 549.749 669.682 C 549.908 657.132, 549.908 636.882, 549.749 624.682 C 549.590 612.482, 549.460 622.750, 549.460 647.500 M 562.439 636 C 562.439 651.125, 562.578 657.313, 562.748 649.750 C 562.917 642.188, 562.917 629.813, 562.748 622.250 C 562.578 614.688, 562.439 620.875, 562.439 636 M 436.459 619.250 C 436.195 619.938, 436.097 643.900, 436.240 672.500 L 436.501 724.500 437 671.250 C 437.275 641.962, 437.373 618, 437.219 618 C 437.064 618, 436.722 618.563, 436.459 619.250 M 562.446 711.500 C 562.447 729.100, 562.583 736.159, 562.749 727.187 C 562.914 718.215, 562.914 703.815, 562.748 695.187 C 562.581 686.559, 562.446 693.900, 562.446 711.500 M 549.419 713 C 549.419 723.725, 549.566 728.112, 549.746 722.750 C 549.925 717.388, 549.925 708.612, 549.746 703.250 C 549.566 697.888, 549.419 702.275, 549.419 713" stroke="none" fill="#c0c0c0" fill-rule="evenodd"/><path d="M 488.750 216.723 C 490.538 216.945, 493.462 216.945, 495.250 216.723 C 497.038 216.502, 495.575 216.320, 492 216.320 C 488.425 216.320, 486.962 216.502, 488.750 216.723 M 509.750 216.723 C 511.538 216.945, 514.462 216.945, 516.250 216.723 C 518.038 216.502, 516.575 216.320, 513 216.320 C 509.425 216.320, 507.962 216.502, 509.750 216.723 M 475 293.123 C 430.540 298.239, 389.212 319.031, 360.726 350.612 L 357.018 354.723 367.759 356.862 C 373.666 358.039, 379.436 359.001, 380.580 359.001 C 381.725 359, 385.100 356.743, 388.080 353.985 C 407.944 335.606, 437.289 321.795, 468 316.372 C 482.399 313.829, 516.364 313.794, 529.694 316.308 C 551.960 320.508, 572.608 328.311, 588.769 338.634 C 591.668 340.485, 594.450 342, 594.953 342 C 595.456 342, 599.736 338.812, 604.463 334.917 L 613.058 327.833 610.779 326.067 C 605.511 321.985, 594.667 315.722, 583.953 310.574 C 564.866 301.404, 544.271 295.529, 522.500 293.044 C 511.967 291.841, 485.755 291.885, 475 293.123 M 661.307 305.741 C 653.034 312.719, 586.390 370.658, 576.199 379.731 C 569.042 386.104, 567.522 388.423, 572.164 385.885 C 573.449 385.183, 585.143 380.984, 598.151 376.554 L 621.802 368.500 651.401 339.244 C 667.680 323.154, 681 309.579, 681 309.079 C 681 307.523, 671.816 300, 669.916 300 C 668.925 300, 665.051 302.584, 661.307 305.741 M 781.490 553.500 C 781.490 655.800, 781.607 697.798, 781.750 646.829 C 781.893 595.861, 781.893 512.161, 781.750 460.829 C 781.607 409.498, 781.490 451.200, 781.490 553.500 M 291.750 369.732 C 294.087 369.943, 297.913 369.943, 300.250 369.732 C 302.587 369.522, 300.675 369.349, 296 369.349 C 291.325 369.349, 289.413 369.522, 291.750 369.732 M 802.749 407.585 C 802.337 407.996, 802 487.908, 802 585.167 C 802 753.130, 801.911 762.089, 800.227 763.773 C 798.779 765.221, 795.240 765.780, 780.977 766.817 C 747.286 769.266, 697.441 777.197, 663.500 785.509 C 640.598 791.117, 612.904 800.204, 592.500 808.805 C 582.545 813.001, 566 820.806, 566 821.306 C 566 821.538, 571.288 820.476, 577.750 818.945 C 625.963 807.525, 688.800 797.026, 748 790.499 C 799.520 784.819, 819.449 782.106, 820.531 780.626 C 821.897 778.759, 821.793 410.369, 820.426 409.077 C 819.208 407.926, 803.716 406.618, 802.749 407.585 M 311.487 556 C 311.487 636.575, 311.605 669.538, 311.750 629.250 C 311.895 588.963, 311.895 523.038, 311.750 482.750 C 311.605 442.463, 311.487 475.425, 311.487 556 M 740.425 436 C 740.425 447.825, 740.569 452.663, 740.746 446.750 C 740.923 440.837, 740.923 431.163, 740.746 425.250 C 740.569 419.337, 740.425 424.175, 740.425 436 M 323.461 464 C 323.461 489.575, 323.591 500.038, 323.749 487.250 C 323.907 474.463, 323.907 453.538, 323.749 440.750 C 323.591 427.963, 323.461 438.425, 323.461 464 M 260.590 457.250 C 259.281 497.804, 258.047 566.931, 257.524 629 C 257.230 663.925, 256.754 709.825, 256.466 731 C 255.858 775.657, 255.439 773.459, 264.757 774.499 C 320.413 780.716, 362.567 787.572, 403.614 797.082 C 422.372 801.427, 455.707 810.673, 464.882 814.075 C 472.929 817.059, 472.108 815.751, 463.288 811.537 C 407.266 784.774, 347.116 769.695, 283.171 766.383 C 272.679 765.839, 269.380 765.319, 267.671 763.937 C 265.546 762.217, 265.488 761.491, 264.918 729.340 C 264.598 711.278, 264.255 638.512, 264.157 567.637 C 264.059 496.762, 263.732 438.375, 263.430 437.887 C 261.740 435.152, 261.181 438.962, 260.590 457.250 M 403.465 489 C 403.465 517.875, 403.593 529.688, 403.749 515.250 C 403.905 500.812, 403.905 477.187, 403.749 462.750 C 403.593 448.313, 403.465 460.125, 403.465 489 M 549.425 483 C 549.425 494.825, 549.569 499.663, 549.746 493.750 C 549.923 487.837, 549.923 478.163, 549.746 472.250 C 549.569 466.337, 549.425 471.175, 549.425 483 M 563.447 513 C 563.447 530.875, 563.582 538.188, 563.748 529.250 C 563.914 520.313, 563.914 505.688, 563.748 496.750 C 563.582 487.813, 563.447 495.125, 563.447 513 M 323.402 559 C 323.402 567.525, 323.556 571.013, 323.743 566.750 C 323.931 562.487, 323.931 555.513, 323.743 551.250 C 323.556 546.987, 323.402 550.475, 323.402 559 M 753.477 628.500 C 753.477 672.500, 753.600 690.354, 753.750 668.176 C 753.900 645.997, 753.900 609.997, 753.750 588.176 C 753.599 566.354, 753.476 584.500, 753.477 628.500 M 741.444 590 C 741.444 606.775, 741.581 613.638, 741.748 605.250 C 741.915 596.862, 741.915 583.138, 741.748 574.750 C 741.581 566.362, 741.444 573.225, 741.444 590 M 323.465 642 C 323.465 670.325, 323.593 681.913, 323.749 667.750 C 323.906 653.588, 323.906 630.413, 323.749 616.250 C 323.593 602.087, 323.465 613.675, 323.465 642 M 648.328 614.500 C 648.333 618.350, 648.513 619.802, 648.730 617.728 C 648.946 615.653, 648.943 612.503, 648.722 610.728 C 648.501 608.952, 648.324 610.650, 648.328 614.500 M 239.809 643.002 C 239.639 649.603, 239.838 655.003, 240.250 655.002 C 240.662 655.001, 241 649.600, 241 643 C 241 636.400, 240.801 631, 240.559 631 C 240.316 631, 239.979 636.401, 239.809 643.002 M 741.437 672 C 741.437 686.575, 741.577 692.538, 741.747 685.250 C 741.918 677.962, 741.918 666.038, 741.747 658.750 C 741.577 651.462, 741.437 657.425, 741.437 672" stroke="none" fill="#575859" fill-rule="evenodd"/><path d="M 485.250 178.735 C 487.863 178.941, 492.137 178.941, 494.750 178.735 C 497.363 178.529, 495.225 178.360, 490 178.360 C 484.775 178.360, 482.637 178.529, 485.250 178.735 M 517.250 178.735 C 519.862 178.941, 524.138 178.941, 526.750 178.735 C 529.362 178.529, 527.225 178.360, 522 178.360 C 516.775 178.360, 514.638 178.529, 517.250 178.735 M 570.500 184.559 C 573.800 185.303, 577.175 185.879, 578 185.838 C 580.346 185.720, 569.805 183.191, 567 183.198 C 565.625 183.202, 567.200 183.814, 570.500 184.559 M 623.083 199.379 C 624.010 200.222, 638.398 205.936, 638.738 205.596 C 638.939 205.394, 635.737 203.828, 631.621 202.115 C 624.808 199.278, 621.975 198.371, 623.083 199.379 M 640.083 206.386 C 641.100 207.329, 665 218.963, 665 218.515 C 665 217.963, 641.438 206, 640.349 206 C 639.974 206, 639.854 206.174, 640.083 206.386 M 365.750 209.566 C 363.137 210.926, 361 212.262, 361 212.536 C 361 212.982, 370.900 208.306, 371.917 207.380 C 373.155 206.251, 369.901 207.405, 365.750 209.566 M 492.803 215.746 C 498.470 215.925, 507.470 215.924, 512.803 215.745 C 518.136 215.565, 513.500 215.419, 502.500 215.420 C 491.500 215.421, 487.136 215.568, 492.803 215.746 M 546.500 219.057 C 551.566 220.105, 555.659 220.058, 551.500 219 C 549.850 218.580, 547.150 218.235, 545.500 218.233 C 542.978 218.231, 543.137 218.362, 546.500 219.057 M 683 229.294 C 683 229.521, 686.263 231.870, 690.250 234.514 C 704.851 244.195, 729.500 264.075, 729.500 266.170 C 729.500 266.775, 722.080 274.131, 713.012 282.519 L 696.524 297.769 685.431 287.134 C 675.555 277.666, 662 266.179, 662 267.277 C 662 267.503, 666.388 271.328, 671.750 275.778 C 677.112 280.228, 684.838 287.247, 688.917 291.376 L 696.335 298.884 700.991 294.692 C 703.552 292.386, 711.536 285.007, 718.733 278.293 L 731.819 266.085 725.660 260.697 C 712.119 248.850, 683 227.415, 683 229.294 M 319.250 238.552 C 315.262 241.585, 312 244.287, 312 244.557 C 312 244.827, 315.375 242.507, 319.500 239.403 C 326.015 234.499, 327.784 232.942, 326.750 233.019 C 326.613 233.029, 323.238 235.519, 319.250 238.552 M 611.083 237.341 C 611.313 237.528, 617.800 240.902, 625.500 244.839 C 633.200 248.775, 638.600 251.301, 637.500 250.452 C 633.922 247.691, 608.020 234.835, 611.083 237.341 M 377.750 243.563 C 374.038 245.469, 371 247.252, 371 247.526 C 371 247.973, 384.900 241.316, 385.917 240.383 C 387.284 239.126, 383.594 240.564, 377.750 243.563 M 640.500 252.717 C 642.077 254.310, 657 264.118, 657 263.561 C 657 263.286, 653.737 260.877, 649.750 258.207 C 641.502 252.686, 638.998 251.199, 640.500 252.717 M 285.483 268.250 L 274.500 279.500 285.750 268.517 C 291.938 262.476, 297 257.414, 297 257.267 C 297 256.546, 295.684 257.801, 285.483 268.250 M 304.963 296.750 C 292.180 310.176, 289.606 313, 290.151 313 C 290.467 313, 295.329 308.050, 300.955 302 C 306.581 295.950, 311.016 291, 310.811 291 C 310.605 291, 307.974 293.587, 304.963 296.750 M 279.388 326.250 C 276.787 329.688, 274.231 333.063, 273.707 333.750 C 273.184 334.438, 272.981 335, 273.256 335 C 273.532 335, 276.298 331.625, 279.403 327.500 C 282.507 323.375, 284.838 320, 284.582 320 C 284.326 320, 281.989 322.813, 279.388 326.250 M 743.500 366.597 C 689.007 371.922, 630.283 385.637, 589 402.679 C 568.910 410.972, 546.044 424.169, 533.250 434.853 L 527 440.073 527 627.655 L 527 815.237 530.250 812.816 C 546.355 800.815, 578.921 785.182, 610 774.533 C 664.288 755.931, 716.961 745.561, 771.666 742.706 C 775.057 742.529, 778.545 741.793, 779.416 741.070 C 780.851 739.879, 781 722.244, 781 553.578 C 781 410.106, 780.725 367.125, 779.800 366.200 C 778.223 364.623, 761.860 364.802, 743.500 366.597 M 286.750 370.543 C 286.337 370.978, 286 454.228, 286 555.544 C 286 701.720, 286.258 739.959, 287.250 740.741 C 287.938 741.283, 292.775 741.998, 298 742.329 C 340.181 745.001, 398.179 758.452, 442 775.725 C 465.424 784.958, 490.549 798.199, 505.500 809.188 C 508.800 811.614, 512.131 813.983, 512.903 814.453 C 514.104 815.184, 514.213 801.403, 513.665 718.403 C 513.312 665.106, 513.019 580.479, 513.012 530.342 L 513 439.183 503.750 432.158 C 466.143 403.597, 404.655 381.734, 337.157 372.922 C 320.542 370.753, 288.009 369.218, 286.750 370.543 M 244.450 382.099 C 243.028 384.904, 242.033 387.367, 242.238 387.571 C 242.443 387.776, 243.818 385.482, 245.295 382.472 C 246.771 379.462, 247.766 377, 247.506 377 C 247.246 377, 245.871 379.295, 244.450 382.099 M 726 398.486 C 656.248 410.445, 607.569 425.079, 566 446.587 C 559.125 450.144, 552.449 454.237, 551.164 455.683 L 548.827 458.312 549.243 509.639 C 549.632 557.590, 549.779 561.099, 551.485 562.983 C 552.489 564.092, 554.065 565, 554.987 565 C 555.910 565, 564.728 561.461, 574.582 557.135 C 592.783 549.145, 605.710 544.377, 606.642 545.309 C 606.925 545.592, 606.593 552.883, 605.904 561.511 L 604.651 577.199 601.575 578.567 C 599.884 579.320, 592.200 582.245, 584.500 585.067 C 564.943 592.236, 553.841 596.984, 551.500 599.183 C 549.533 601.030, 549.500 602.353, 549.500 679.377 C 549.500 762.244, 549.432 761, 553.950 761 C 554.888 761, 559.810 759.198, 564.889 756.995 C 611.438 736.806, 682.249 718.307, 735.500 712.424 C 745.697 711.297, 751.066 710.269, 752.267 709.213 C 753.934 707.747, 754.019 703.052, 753.767 626.879 C 753.562 564.728, 753.217 545.817, 752.274 544.874 C 751.306 543.906, 748.990 543.916, 741.274 544.922 C 729.960 546.397, 681.076 556.251, 657 561.909 C 647.925 564.042, 640.391 565.689, 640.258 565.568 C 640.125 565.448, 644.088 561.108, 649.065 555.925 C 654.041 550.741, 660.549 543.047, 663.525 538.827 C 668.862 531.260, 669.015 531.140, 674.718 530.048 C 698.993 525.402, 704.578 523.562, 717.584 515.924 C 732.377 507.236, 748.715 488.435, 752.475 475.772 C 754.779 468.015, 754.738 398.881, 752.429 396.571 C 750.333 394.476, 748.692 394.595, 726 398.486 M 313.455 406.455 L 311 408.909 311 555.899 L 311 702.888 313.250 705.503 C 315.236 707.811, 316.973 708.340, 328.062 710.011 C 376.160 717.262, 439.232 737.657, 479.743 759.060 C 485.927 762.327, 491.182 765, 491.422 765 C 491.661 765, 492.564 764.293, 493.429 763.429 C 494.843 762.014, 495 746.955, 495 612.603 L 495 463.349 492.750 461.293 C 490.054 458.831, 468.881 447.248, 457 441.737 C 421.229 425.142, 371.488 410.802, 331.542 405.567 C 316.228 403.560, 316.355 403.554, 313.455 406.455 M 324 473.025 L 324 528.050 326.250 528.888 C 327.488 529.350, 330.750 530.034, 333.500 530.409 C 344.891 531.962, 371.512 537.361, 385.976 541.051 C 394.487 543.223, 401.800 545, 402.226 545 C 402.652 545, 403 520.299, 403 490.109 L 403 435.217 399.181 433.689 C 388.284 429.329, 336.105 418, 326.921 418 L 324 418 324 473.025 M 415 492.878 C 415 534.786, 415.278 546.975, 416.250 547.744 C 416.938 548.288, 422 550.208, 427.500 552.012 C 439.746 556.027, 473.175 569.315, 477.603 571.928 C 479.379 572.976, 481.095 573.571, 481.416 573.250 C 482.396 572.270, 482.071 472.316, 481.079 469.708 C 480.377 467.862, 476.032 465.248, 462.829 458.728 C 446.758 450.793, 418.867 439, 416.170 439 C 415.291 439, 415 452.405, 415 492.878 M 191.336 480 C 191.336 484.125, 191.513 485.813, 191.728 483.750 C 191.944 481.688, 191.944 478.313, 191.728 476.250 C 191.513 474.188, 191.336 475.875, 191.336 480 M 216.425 511 C 216.425 522.825, 216.569 527.663, 216.746 521.750 C 216.923 515.837, 216.923 506.163, 216.746 500.250 C 216.569 494.337, 216.425 499.175, 216.425 511 M 191.349 510 C 191.349 514.675, 191.522 516.587, 191.732 514.250 C 191.943 511.913, 191.943 508.087, 191.732 505.750 C 191.522 503.413, 191.349 505.325, 191.349 510 M 324.441 544.292 C 324.169 545.003, 324.070 552.540, 324.223 561.042 L 324.500 576.500 339 579.142 C 359.406 582.860, 382.394 588.302, 404.185 594.572 C 426.691 601.048, 439.405 605.655, 462.233 615.606 C 471.730 619.746, 480.063 623.376, 480.750 623.674 C 481.718 624.092, 481.998 620.867, 481.989 609.357 C 481.972 587.007, 482.271 587.859, 472.962 583.604 C 431.581 564.688, 386.510 551.315, 342.948 545.027 C 326.426 542.642, 325.095 542.589, 324.441 544.292 M 715.500 562.470 C 697.683 565.929, 655.300 575.555, 651.467 577.013 C 648.496 578.142, 648.404 579.415, 649 611 L 649.500 637.500 652 637.399 C 653.375 637.343, 664.625 635.216, 677 632.672 C 689.375 630.128, 708.275 626.891, 719 625.479 C 729.725 624.067, 739.063 622.721, 739.750 622.487 C 740.715 622.160, 741 614.863, 741 590.531 L 741 559 736.750 559.084 C 734.413 559.131, 724.850 560.654, 715.500 562.470 M 612 588.908 C 589.441 596.655, 566.590 605.442, 564.250 607.269 C 563.303 608.008, 563 615.008, 563 636.122 C 563 651.455, 563.263 664, 563.584 664 C 563.905 664, 571.443 661.493, 580.334 658.430 C 589.225 655.366, 605.038 650.405, 615.474 647.406 C 625.910 644.406, 634.910 641.490, 635.474 640.925 C 636.603 639.795, 636.293 582.996, 635.152 581.840 C 634.793 581.477, 624.375 584.658, 612 588.908 M 324.241 643.157 L 324.500 696.313 341.863 699.587 C 363.588 703.685, 391.885 710.730, 409.749 716.491 C 419.878 719.757, 423.639 720.593, 424.205 719.703 C 425.093 718.305, 425.263 619.582, 424.382 616.298 C 423.756 613.962, 415.254 610.758, 392 604.096 C 371.489 598.220, 333.577 590, 326.985 590 L 323.982 590 324.241 643.157 M 437 672.296 L 437 725.728 448.750 730.520 C 455.212 733.155, 465.081 737.448, 470.681 740.058 C 476.280 742.669, 481.118 744.549, 481.431 744.236 C 482.246 743.421, 481.939 644.003, 481.113 641 C 480.669 639.389, 478.661 637.530, 475.462 635.772 C 470.225 632.894, 443.081 620.741, 439.250 619.559 L 437 618.865 437 672.296 M 239.385 642 C 239.385 648.875, 239.545 651.688, 239.740 648.250 C 239.936 644.813, 239.936 639.188, 239.740 635.750 C 239.545 632.313, 239.385 635.125, 239.385 642 M 718.500 637.979 C 684.814 642.972, 653.322 649.638, 621.141 658.589 C 603.217 663.575, 575.092 672.978, 568 676.356 L 563.500 678.500 563.236 711.146 L 562.973 743.793 569.875 740.984 C 608.687 725.189, 673.226 708.467, 722.243 701.505 C 731.451 700.197, 739.439 698.847, 739.993 698.504 C 740.634 698.108, 741 686.673, 741 667.048 C 741 639.854, 740.813 636.142, 739.418 635.607 C 738.548 635.273, 737.761 635.037, 737.668 635.082 C 737.576 635.127, 728.950 636.430, 718.500 637.979" stroke="none" fill="#f3f3f3" fill-rule="evenodd"/><path d="M 479 139.678 C 387.836 146.332, 299.326 189.949, 240.102 257.406 C 183.660 321.693, 152.128 403.450, 150.587 489.500 C 149.857 530.247, 154.392 564.838, 165.577 603.834 C 177.784 646.394, 203.245 694.792, 232.212 730.500 L 237.080 736.500 236.889 759.535 C 236.759 775.304, 237.061 783.246, 237.848 784.715 C 240.504 789.679, 244.538 791.167, 267.367 795.604 C 313.831 804.635, 310.759 803.694, 337 816.929 C 374.890 836.040, 399.210 845.721, 431.654 854.611 C 513.893 877.145, 596.281 866.528, 685.086 821.950 C 692.038 818.461, 694.087 817.968, 709.586 816.058 C 718.889 814.912, 731.450 813.306, 737.500 812.490 C 743.550 811.674, 760.650 809.651, 775.500 807.996 C 819.760 803.061, 828.941 801.579, 833.417 798.646 C 834.765 797.763, 837.134 795.380, 838.683 793.349 L 841.500 789.657 841.758 717.775 L 842.017 645.894 846.902 633.197 C 874.186 562.287, 878.340 484.522, 858.947 407.700 C 848.054 364.550, 822.871 314.105, 794.379 278.361 C 775.426 254.583, 763.354 242.062, 741.538 223.553 C 686.441 176.808, 617.655 148.010, 543.241 140.533 C 529.523 139.155, 492.854 138.667, 479 139.678 M 479.500 177.680 C 449.807 180.230, 421.201 186.378, 396.129 195.599 C 381.943 200.817, 352.179 215.710, 338.900 224.235 C 316.944 238.330, 298.195 253.720, 280.571 272.112 C 232.975 321.782, 203.625 381.639, 192.856 451 C 190.903 463.575, 190.602 469.416, 190.589 495 C 190.575 520.572, 190.866 526.364, 192.778 538.500 C 197.501 568.474, 205.982 594.664, 219.292 620.374 C 226.815 634.904, 238.919 654.878, 240.250 654.956 C 240.662 654.980, 241 649.670, 241 643.156 C 241 631.503, 240.919 631.083, 235.992 617.075 C 224.778 585.198, 219.858 560.655, 218.063 527.644 C 214.603 463.999, 229.484 405.828, 262.793 352.796 C 293.706 303.577, 332.047 268.286, 380.500 244.452 C 405.558 232.126, 431.835 223.859, 460 219.441 C 476.016 216.929, 516.797 216.352, 534.380 218.389 C 594.092 225.309, 643.688 248.613, 686 289.633 L 696.500 299.813 714.674 282.984 L 732.847 266.156 723.674 258.286 C 709.919 246.485, 702.819 241.124, 688.500 231.727 C 641.064 200.598, 591.218 183.053, 536 178.049 C 525.482 177.096, 489.070 176.858, 479.500 177.680 M 496.292 218.742 C 500.027 218.935, 505.877 218.934, 509.292 218.739 C 512.706 218.545, 509.650 218.387, 502.500 218.389 C 495.350 218.390, 492.556 218.550, 496.292 218.742 M 482.676 292.176 C 443.704 294.825, 405.809 310.129, 376.500 335.055 C 366.248 343.773, 356.426 353.759, 357.271 354.604 C 357.632 354.966, 363.352 356.357, 369.981 357.696 L 382.033 360.132 389.267 353.492 C 429.435 316.624, 497.125 304.176, 554.867 323.039 C 565.343 326.461, 583.088 334.900, 590.430 339.952 L 595.043 343.126 603.964 335.813 C 608.871 331.791, 612.911 328.153, 612.943 327.730 C 613.026 326.611, 599.988 318.361, 589.524 312.910 C 558.009 296.494, 521.984 289.504, 482.676 292.176 M 654.451 311.266 C 647.274 317.445, 625.967 336, 607.102 352.500 C 588.237 369, 571.722 383.417, 570.401 384.538 C 566.712 387.668, 567.526 388.133, 572.750 385.880 C 575.362 384.752, 587.310 380.522, 599.300 376.478 L 621.101 369.126 651.050 339.934 C 667.523 323.879, 680.998 310.013, 680.996 309.121 C 680.991 306.960, 672.283 299.996, 669.612 300.016 C 668.378 300.026, 662.077 304.701, 654.451 311.266 M 764.784 362.738 C 767.689 362.941, 772.189 362.939, 774.784 362.734 C 777.378 362.528, 775 362.363, 769.500 362.365 C 764 362.368, 761.878 362.536, 764.784 362.738 M 748.764 365.574 C 658.211 373.805, 578.654 398.804, 535 432.745 L 527.500 438.576 527.247 626.985 C 527.069 760.242, 527.309 815.703, 528.069 816.447 C 528.825 817.188, 529.048 817.088, 528.821 816.108 C 528.068 812.845, 561.060 794.223, 584.500 784.680 C 626.571 767.552, 684.026 752.505, 728 747.100 C 742.300 745.343, 769.689 743, 775.937 743 C 777.072 743, 778.900 742.100, 780 741 C 781.986 739.014, 782 737.667, 782 553.155 C 782 374.381, 781.930 367.247, 780.171 365.655 C 777.944 363.640, 770.259 363.620, 748.764 365.574 M 293.287 367.740 C 296.469 367.939, 301.419 367.937, 304.287 367.736 C 307.154 367.535, 304.550 367.372, 298.500 367.374 C 292.450 367.376, 290.104 367.541, 293.287 367.740 M 783.490 554 C 783.490 656.575, 783.607 698.537, 783.750 647.250 C 783.893 595.962, 783.893 512.037, 783.750 460.750 C 783.607 409.462, 783.490 451.425, 783.490 554 M 286.713 370.430 C 285.108 372.035, 285 383.739, 285 555.949 C 285 712.823, 285.206 739.926, 286.409 740.924 C 287.184 741.567, 293.371 742.536, 300.159 743.077 C 356.826 747.592, 423.328 765.516, 470 788.853 C 486.983 797.345, 502.255 806.778, 501.361 808.225 C 500.953 808.886, 501.159 809.020, 501.890 808.568 C 502.596 808.132, 505.317 809.509, 508.502 811.913 C 511.479 814.161, 514.046 816, 514.207 816 C 514.368 816, 514.397 731.513, 514.272 628.250 L 514.043 440.500 509.272 436.077 C 502.071 429.403, 482.375 416.875, 467.634 409.592 C 422.670 387.378, 359.629 371.985, 302.963 369.384 C 290.016 368.790, 288.239 368.904, 286.713 370.430 M 720.500 400.038 C 666.730 409.454, 625.099 420.886, 589.819 435.921 C 572.846 443.154, 552.397 454.124, 552.750 455.807 C 552.888 456.463, 552.438 456.888, 551.750 456.750 C 550.765 456.553, 550.445 467.687, 550.241 509.221 L 549.982 561.942 552.399 563.526 C 554.718 565.045, 555.602 564.767, 574.158 556.692 C 594.041 548.038, 606.708 543.374, 607.681 544.347 C 607.985 544.652, 607.731 549.162, 607.117 554.371 C 606.503 559.579, 606 566.491, 606 569.729 C 606 572.968, 605.438 576.304, 604.750 577.142 C 604.063 577.980, 595.300 581.703, 585.277 585.415 C 562.922 593.694, 554.300 597.298, 551.867 599.382 C 550.074 600.917, 550 604.081, 550 679.335 C 550 755.612, 550.051 757.737, 551.940 759.446 C 553.805 761.133, 554.338 761.005, 565.690 756.142 C 613.841 735.517, 679.901 718.180, 733.811 712.021 C 743.332 710.933, 751.544 709.782, 752.061 709.462 C 752.634 709.108, 753 677.192, 753 627.563 C 753 562.072, 752.747 546.035, 751.700 545.166 C 750.765 544.390, 747.642 544.502, 740.563 545.566 C 721.907 548.368, 671.522 558.791, 648.860 564.535 C 643.306 565.943, 638.605 566.938, 638.412 566.746 C 638.220 566.553, 642.099 562.379, 647.031 557.469 C 656.316 548.227, 659.633 543.173, 651.250 551.042 L 646.500 555.500 650.907 550.802 C 653.331 548.219, 655.753 546.194, 656.290 546.302 C 656.827 546.411, 659.841 542.949, 662.987 538.608 L 668.707 530.717 683.104 527.784 C 691.022 526.171, 700.078 523.816, 703.230 522.550 C 716.119 517.373, 733.839 505.273, 732.347 502.666 C 731.980 502.025, 732.058 501.844, 732.520 502.264 C 732.983 502.684, 734.630 501.813, 736.181 500.327 C 739.523 497.125, 739.998 494.845, 736.750 497.595 L 734.500 499.500 736.384 497.274 C 737.420 496.049, 738.629 495.271, 739.072 495.544 C 740.179 496.228, 746.439 487.846, 749.511 481.567 C 750.902 478.724, 752.460 473.818, 752.973 470.665 C 753.829 465.406, 753.367 400.177, 752.453 397.250 C 751.821 395.226, 744.157 395.895, 720.500 400.038 M 747.988 397.562 L 750.975 398.125 751.257 434.812 L 751.538 471.500 751.519 434.500 L 751.500 397.500 748.250 397.250 C 745.069 397.005, 745.063 397.012, 747.988 397.562 M 313.750 406.706 C 312.100 408.546, 312 417.091, 312 556.154 L 312 703.651 314.250 705.751 C 315.883 707.275, 318.831 708.158, 325 708.971 C 370.335 714.945, 434.672 735.349, 477.175 757.231 C 485.194 761.360, 491.501 764.022, 492.425 763.667 C 493.849 763.121, 494 748.615, 494 612.575 L 494 462.088 487.198 458.115 C 474.569 450.740, 450.585 439.159, 436.500 433.636 C 401.606 419.952, 351.172 407.318, 323.500 405.329 C 316.404 404.819, 315.302 404.975, 313.750 406.706 M 314.655 407.829 C 313.131 409.513, 313.001 421.222, 313.015 556.079 C 313.024 636.610, 313.361 703.020, 313.765 703.655 C 314.169 704.290, 314.383 638.416, 314.240 557.269 C 314.055 452.377, 314.294 409.351, 315.065 408.422 C 315.661 407.704, 317.578 406.937, 319.324 406.718 L 322.500 406.320 319.405 406.160 C 317.514 406.062, 315.666 406.711, 314.655 407.829 M 801.643 408.488 C 801.289 409.409, 801 489.750, 801 587.023 C 801 709.406, 800.677 764.082, 799.951 764.531 C 799.373 764.887, 792.736 765.589, 785.201 766.090 C 727.314 769.939, 657.794 783.882, 611.839 800.859 C 593.927 807.476, 564.336 820.669, 565.283 821.616 C 565.479 821.813, 574.609 819.993, 585.570 817.573 C 642.541 804.991, 692.281 796.837, 750.500 790.534 C 796.822 785.519, 817.489 782.782, 819.750 781.365 L 822 779.954 821.985 595.227 C 821.975 480.638, 821.610 409.930, 821.022 409 C 820.326 407.898, 817.715 407.409, 811.180 407.156 C 803.582 406.862, 802.193 407.056, 801.643 408.488 M 709.500 414.106 C 664.529 422.647, 635.050 430.744, 604.662 442.901 C 589.212 449.082, 574.972 455.474, 568.250 459.245 L 563 462.191 563 505.081 L 563 547.971 567.750 546.088 C 570.362 545.052, 577 542.421, 582.500 540.240 C 588 538.059, 598.253 534.371, 605.284 532.043 C 620.001 527.172, 621 527.349, 621 534.830 C 621 537.352, 620.282 544.979, 619.406 551.780 C 618.529 558.580, 618.066 564.400, 618.378 564.712 C 620.251 566.585, 648.559 538.639, 655.566 528 L 660.505 520.500 671.503 518.179 C 698.994 512.377, 710.832 507.554, 721.435 497.839 C 729.154 490.765, 737.352 478.919, 739.475 471.772 C 741.460 465.087, 741.740 412.140, 739.800 410.200 C 738.198 408.598, 739.118 408.480, 709.500 414.106 M 321.467 472.500 C 321.467 503.300, 321.594 516.044, 321.749 500.821 C 321.904 485.598, 321.905 460.398, 321.749 444.821 C 321.594 429.244, 321.467 441.700, 321.467 472.500 M 323.630 417.704 C 323.283 418.050, 323 442.697, 323 472.476 C 323 514.288, 323.285 526.974, 324.250 528.183 C 325.011 529.135, 328.632 530.212, 333.500 530.934 C 346.206 532.818, 379.497 539.700, 391.273 542.877 C 401.543 545.648, 402.091 545.699, 403.023 543.958 C 403.624 542.834, 404 521.718, 404 489.089 L 404 436.046 401.750 434.574 C 394.094 429.564, 326.390 414.943, 323.630 417.704 M 342.500 418.057 C 347.566 419.105, 351.659 419.058, 347.500 418 C 345.850 417.580, 343.150 417.235, 341.500 417.233 C 338.978 417.231, 339.137 417.362, 342.500 418.057 M 405.467 490.500 C 405.467 520.750, 405.594 533.269, 405.749 518.321 C 405.905 503.372, 405.905 478.622, 405.749 463.321 C 405.594 448.019, 405.467 460.250, 405.467 490.500 M 260.593 442.250 C 259.653 451.207, 257.075 602.359, 256.392 688.550 C 255.787 764.933, 255.860 770.717, 257.441 772.298 C 259.554 774.411, 259.530 774.406, 282 776.981 C 325.369 781.951, 364.733 788.491, 399.500 796.501 C 420.909 801.433, 459.355 811.998, 467.380 815.154 C 476.857 818.881, 473.154 815.955, 461.403 810.431 C 434.186 797.636, 413.322 789.863, 386.819 782.644 C 351.098 772.913, 325.884 768.844, 283.591 765.988 C 275.391 765.434, 268.135 764.527, 267.466 763.972 C 266.797 763.416, 265.987 761.283, 265.665 759.231 C 265.344 757.179, 264.951 701.050, 264.791 634.500 C 264.346 449.194, 264.207 437, 262.549 437 C 261.591 437, 260.969 438.670, 260.593 442.250 M 412.465 490 C 412.465 518.875, 412.593 530.688, 412.749 516.250 C 412.905 501.812, 412.905 478.187, 412.749 463.750 C 412.593 449.313, 412.465 461.125, 412.465 490 M 415 493.250 L 415.500 548.500 426.500 552.254 C 442.263 557.634, 465.385 566.735, 473.225 570.645 C 476.924 572.490, 480.411 574, 480.975 574 C 481.662 574, 482 556.709, 482 521.573 L 482 469.145 479.250 466.954 C 473.347 462.252, 419.886 438.001, 415.420 438 C 414.865 438, 414.698 459.921, 415 493.250 M 551.447 491 C 551.447 508.875, 551.582 516.188, 551.748 507.250 C 551.914 498.313, 551.914 483.688, 551.748 474.750 C 551.582 465.813, 551.447 473.125, 551.447 491 M 492.482 570.500 C 492.482 628.250, 492.602 651.728, 492.750 622.673 C 492.897 593.619, 492.897 546.369, 492.750 517.673 C 492.602 488.978, 492.482 512.750, 492.482 570.500 M 219.409 513.500 C 219.408 522.850, 219.558 526.810, 219.743 522.299 C 219.928 517.789, 219.929 510.139, 219.745 505.299 C 219.562 500.460, 219.410 504.150, 219.409 513.500 M 324.200 543.200 C 322.814 544.586, 322.496 573.657, 323.843 575.780 C 324.292 576.488, 331.551 578.344, 340.078 579.932 C 390.453 589.309, 435.849 603.334, 473.500 621.152 C 477.350 622.974, 480.848 624.626, 481.272 624.823 C 481.697 625.020, 481.922 616.703, 481.772 606.341 L 481.500 587.500 473.414 583.472 C 462.175 577.875, 437.437 568.198, 419 562.188 C 393.340 553.822, 371.077 548.628, 343 544.456 C 323.612 541.575, 325.687 541.713, 324.200 543.200 M 321.409 559.500 C 321.408 568.850, 321.558 572.810, 321.743 568.299 C 321.928 563.789, 321.929 556.139, 321.745 551.299 C 321.562 546.460, 321.410 550.150, 321.409 559.500 M 740.500 547 C 737.133 547.603, 736.975 547.727, 739.500 547.784 C 741.150 547.821, 744.525 547.491, 747 547.051 C 751.038 546.333, 751.140 546.252, 748 546.267 C 746.075 546.276, 742.700 546.606, 740.500 547 M 751.125 627.500 C 750.926 670.400, 750.829 706.031, 750.909 706.681 C 750.990 707.330, 749.806 708.050, 748.278 708.281 L 745.500 708.700 748.281 708.850 C 749.811 708.933, 751.277 708.438, 751.540 707.750 C 751.802 707.063, 751.898 671.175, 751.752 628 L 751.488 549.500 751.125 627.500 M 730 559.200 C 705.859 563.425, 655.520 574.664, 650.106 577.038 L 647.712 578.088 648.227 607.615 C 648.510 623.854, 649.140 637.540, 649.628 638.028 C 650.144 638.544, 655.049 637.890, 661.349 636.466 C 680.979 632.029, 703.223 628.057, 721.847 625.662 C 734.403 624.048, 740.475 622.861, 741.082 621.902 C 742.066 620.347, 742.357 562.094, 741.393 559.582 C 740.716 557.818, 738.350 557.739, 730 559.200 M 742.999 590.299 L 743.498 622.500 743.764 591.065 C 743.910 573.775, 743.685 559.285, 743.265 558.863 C 742.844 558.442, 742.725 572.588, 742.999 590.299 M 441 559.321 C 441 560.049, 452.155 564.179, 452.686 563.648 C 452.918 563.415, 451.172 562.547, 448.804 561.718 C 446.437 560.890, 443.712 559.891, 442.750 559.499 C 441.788 559.107, 441 559.027, 441 559.321 M 607.310 571.500 C 607.315 574.800, 607.502 576.029, 607.725 574.232 C 607.947 572.435, 607.943 569.735, 607.715 568.232 C 607.486 566.729, 607.304 568.200, 607.310 571.500 M 611.500 588.401 C 588.521 596.384, 567.774 604.383, 564.250 606.619 C 562.004 608.043, 562 608.102, 562 635.964 C 562 651.319, 562.381 664.118, 562.847 664.406 C 563.313 664.694, 568.151 663.332, 573.597 661.380 C 587.563 656.374, 605.248 650.821, 621 646.494 C 628.425 644.455, 635.111 642.208, 635.858 641.500 C 636.975 640.441, 637.085 634.968, 636.477 610.606 C 635.820 584.257, 635.561 581.006, 634.120 581.052 C 633.229 581.081, 623.050 584.388, 611.500 588.401 M 638.431 605.500 C 638.432 618.700, 638.574 623.962, 638.747 617.193 C 638.921 610.424, 638.920 599.624, 638.746 593.193 C 638.572 586.762, 638.431 592.300, 638.431 605.500 M 646.431 611.500 C 646.432 624.700, 646.574 629.962, 646.747 623.193 C 646.921 616.424, 646.920 605.624, 646.746 599.193 C 646.572 592.762, 646.431 598.300, 646.431 611.500 M 323.667 589.667 C 322.716 590.618, 322.868 694.243, 323.822 695.747 C 324.258 696.432, 329.763 697.918, 336.057 699.049 C 362.133 703.732, 394.482 711.775, 414 718.429 C 418.125 719.835, 422.288 720.989, 423.250 720.993 C 424.895 721, 425 717.813, 425 668.023 L 425 615.046 422.750 613.618 C 416.822 609.856, 375.043 598.380, 346 592.536 C 328.047 588.923, 324.824 588.509, 323.667 589.667 M 321.466 643 C 321.466 672.425, 321.593 684.462, 321.749 669.750 C 321.905 655.038, 321.905 630.962, 321.749 616.250 C 321.593 601.538, 321.466 613.575, 321.466 643 M 428.500 605.046 C 431.250 606.120, 433.950 606.974, 434.500 606.943 C 436.003 606.861, 426.734 603.113, 425 603.103 C 424.175 603.098, 425.750 603.972, 428.500 605.046 M 436 671.378 C 436 714.695, 436.252 724.964, 437.336 725.864 C 438.071 726.474, 444.034 729.187, 450.586 731.893 C 457.139 734.600, 466.482 738.656, 471.350 740.907 C 476.217 743.158, 480.604 745, 481.100 745 C 481.622 745, 482 722.765, 482 692.013 L 482 639.025 478.250 636.677 C 472.769 633.245, 438.737 618, 436.557 618 C 436.250 618, 436 642.020, 436 671.378 M 434.466 673 C 434.466 702.425, 434.593 714.462, 434.749 699.750 C 434.905 685.038, 434.905 660.962, 434.749 646.250 C 434.593 631.538, 434.466 643.575, 434.466 673 M 690 632 C 686.626 632.710, 686.608 632.737, 689.500 632.750 C 691.150 632.757, 693.850 632.420, 695.500 632 C 698.162 631.323, 698.218 631.238, 696 631.250 C 694.625 631.257, 691.925 631.595, 690 632 M 717 637.533 C 680.277 643.139, 640.387 652.039, 607.796 661.896 C 589.156 667.534, 567.930 675.161, 564.348 677.507 L 562 679.046 562 711.523 C 562 729.385, 562.337 743.999, 562.750 743.998 C 563.163 743.997, 568.675 742.033, 575 739.633 C 619.188 722.872, 678.838 707.836, 726.500 701.445 C 733.650 700.486, 740.063 699.264, 740.750 698.728 C 742.513 697.356, 742.560 637.960, 740.800 636.200 C 739.152 634.552, 735.002 634.785, 717 637.533 M 705.500 637 C 701.341 638.058, 705.434 638.105, 710.500 637.057 C 713.863 636.362, 714.022 636.231, 711.500 636.233 C 709.850 636.235, 707.150 636.580, 705.500 637 M 743.445 667 C 743.445 684.325, 743.582 691.413, 743.748 682.750 C 743.915 674.087, 743.915 659.913, 743.748 651.250 C 743.582 642.587, 743.445 649.675, 743.445 667 M 587.500 658 C 584.750 659.015, 583.175 659.845, 584 659.845 C 584.825 659.845, 587.750 659.015, 590.500 658 C 593.250 656.985, 594.825 656.155, 594 656.155 C 593.175 656.155, 590.250 656.985, 587.500 658 M 560.355 689.500 C 560.352 694.450, 560.521 696.601, 560.731 694.280 C 560.940 691.959, 560.943 687.909, 560.736 685.280 C 560.530 682.651, 560.358 684.550, 560.355 689.500 M 492.320 697 C 492.320 700.575, 492.502 702.038, 492.723 700.250 C 492.945 698.462, 492.945 695.538, 492.723 693.750 C 492.502 691.962, 492.320 693.425, 492.320 697 M 560.343 708.500 C 560.346 712.900, 560.522 714.576, 560.733 712.224 C 560.945 709.872, 560.942 706.272, 560.727 704.224 C 560.512 702.176, 560.339 704.100, 560.343 708.500 M 411.424 728.567 C 415.232 729.898, 418.520 730.814, 418.730 730.604 C 419.191 730.142, 407.054 725.969, 405.556 726.074 C 404.975 726.115, 407.616 727.237, 411.424 728.567 M 492.219 747.857 C 492.018 761.068, 491.860 762.161, 490.250 761.548 C 488.847 761.014, 488.748 761.131, 489.750 762.141 C 492.383 764.793, 493.061 761.464, 492.749 747.421 L 492.439 733.500 492.219 747.857 M 560.310 739.500 C 560.315 742.800, 560.502 744.029, 560.725 742.232 C 560.947 740.435, 560.943 737.735, 560.715 736.232 C 560.486 734.729, 560.304 736.200, 560.310 739.500 M 608.188 737.683 C 605.816 738.522, 604.052 739.385, 604.268 739.601 C 604.484 739.817, 607.099 739.128, 610.080 738.070 C 613.061 737.012, 614.825 736.149, 614 736.152 C 613.175 736.155, 610.559 736.844, 608.188 737.683 M 291.768 744.725 C 293.565 744.947, 296.265 744.943, 297.768 744.715 C 299.271 744.486, 297.800 744.304, 294.500 744.310 C 291.200 744.315, 289.971 744.502, 291.768 744.725 M 516.436 790.500 C 516.436 804.800, 516.577 810.511, 516.748 803.191 C 516.919 795.871, 516.918 784.171, 516.747 777.191 C 516.575 770.211, 516.435 776.200, 516.436 790.500" stroke="none" fill="#201f20" fill-rule="evenodd"/><path d="M 712 414.020 C 668.680 422.186, 647.204 427.656, 621.232 437.140 C 593.535 447.252, 566.220 459.293, 564.324 462.225 C 563.428 463.611, 563.152 546.992, 564.043 546.997 C 564.342 546.999, 569.742 544.911, 576.043 542.358 C 589.386 536.951, 615.591 528, 618.076 528 C 619.016 528, 620.059 528.712, 620.393 529.582 C 621.364 532.113, 621.011 542.658, 619.575 554 C 618.844 559.775, 618.400 564.672, 618.588 564.882 C 619.262 565.633, 642.431 544.390, 647.241 538.612 C 649.938 535.373, 653.936 529.886, 656.126 526.418 L 660.108 520.112 667.804 518.473 C 697.146 512.221, 703.913 509.953, 714.651 502.771 C 725.749 495.348, 737.221 480.249, 739.549 470 C 740.408 466.214, 740.283 411.267, 739.411 409.856 C 739.120 409.385, 738.571 409.048, 738.191 409.107 C 737.811 409.165, 726.025 411.376, 712 414.020" stroke="none" fill="#ed5b48" fill-rule="evenodd"/></svg>